<?xml version="1.0" standalone="no"?>
<!DOCTYPE svg PUBLIC "-//W3C//DTD SVG 20010904//EN"
 "http://www.w3.org/TR/2001/REC-SVG-20010904/DTD/svg10.dtd">
<svg version="1.0" xmlns="http://www.w3.org/2000/svg"
 width="280.000000pt" height="280.000000pt" viewBox="0 0 280.000000 280.000000"
 preserveAspectRatio="xMidYMid meet">
<metadata>
Created by potrace 1.11, written by Peter Selinger 2001-2013
</metadata>
<g transform="translate(0.000000,280.000000) scale(0.100000,-0.100000)"
fill="#000000" stroke="none">
<path d="M0 1400 l0 -1400 1400 0 1400 0 0 1400 0 1400 -1400 0 -1400 0 0
-1400z m2700 0 l0 -1210 -280 0 c-192 0 -280 3 -280 11 0 6 5 19 10 30 6 10 7
19 2 19 -5 0 -9 7 -9 15 0 11 4 12 13 4 9 -7 12 -6 10 6 -1 8 -5 15 -9 15 -4
0 -14 0 -22 0 -8 0 -15 -7 -15 -15 0 -8 -5 -15 -11 -15 -6 0 -9 -7 -5 -15 3
-8 1 -15 -5 -15 -6 0 -7 -5 -4 -10 5 -7 11 -8 19 -1 8 7 12 4 12 -10 0 -19
-17 -19 -1013 -19 l-1013 0 0 1004 c0 976 1 1004 19 999 20 -5 164 58 176 77
10 16 -4 28 -43 35 -32 5 -67 -7 -87 -30 -5 -6 -22 -16 -37 -23 l-28 -12 0
185 0 185 1300 0 1300 0 0 -1210z"/>
<path d="M690 2445 c14 -16 40 -20 40 -6 0 9 -24 21 -42 21 -6 0 -6 -6 2 -15z"/>
<path d="M457 2383 c-3 -5 -1 -19 4 -32 8 -19 14 -22 37 -16 37 9 50 23 26 30
-10 4 -27 11 -36 16 -21 11 -26 11 -31 2z"/>
<path d="M1633 2094 c-7 -7 -13 -27 -13 -44 0 -17 -7 -47 -15 -67 -11 -27 -12
-39 -4 -49 6 -8 13 -34 14 -59 3 -42 1 -46 -38 -75 -49 -36 -61 -38 -52 -7 4
12 -14 -14 -39 -57 -25 -44 -46 -83 -46 -87 0 -4 -8 -10 -17 -14 -17 -6 -17
-7 0 -16 9 -6 17 -16 17 -24 0 -18 -33 -75 -43 -75 -5 0 -6 15 -3 33 l6 32
-19 -38 c-27 -56 -36 -62 -59 -39 -46 46 -146 52 -194 12 -20 -16 -21 -22 -10
-39 6 -11 12 -27 12 -35 0 -8 20 -31 45 -51 59 -49 65 -82 32 -165 -14 -34
-23 -68 -20 -76 6 -15 -19 -59 -49 -85 -10 -9 -18 -25 -18 -35 0 -11 -13 -49
-29 -86 -16 -37 -27 -69 -24 -71 2 -3 -2 -30 -11 -61 -10 -39 -23 -64 -42 -79
-16 -12 -31 -21 -34 -20 -3 1 -5 -9 -5 -22 0 -13 3 -21 7 -19 3 2 8 -2 11 -8
3 -7 12 3 20 22 9 19 16 29 17 21 0 -8 12 4 26 25 15 21 33 43 40 47 8 4 14
13 14 19 0 10 34 56 66 90 9 10 22 26 28 36 40 67 60 92 71 92 7 0 18 14 24
30 5 17 15 30 20 30 6 0 15 9 21 20 13 24 -3 82 -31 115 -9 11 -14 26 -12 33
3 6 0 12 -5 12 -5 0 -7 12 -4 26 3 16 9 23 18 20 8 -3 14 1 14 9 0 15 6 18 35
18 30 0 35 -3 35 -19 0 -8 5 -12 11 -8 6 3 9 17 6 31 -2 13 -2 21 1 19 2 -3
14 0 26 6 11 7 25 12 29 13 4 0 11 6 16 14 7 10 13 11 29 2 11 -6 25 -11 30
-11 9 0 22 29 26 55 0 6 11 11 23 13 24 4 28 38 6 46 -22 9 -14 24 8 19 19 -5
21 -3 17 25 -2 17 -1 33 3 34 5 2 11 28 14 58 2 30 9 75 15 99 6 24 9 49 7 56
-3 6 1 19 9 29 7 11 11 23 7 29 -3 6 -1 7 4 4 6 -4 13 -1 15 6 4 10 3 129 -1
230 -1 10 -5 15 -11 12 -5 -3 -10 0 -10 7 0 10 -2 10 -9 -1 -5 -7 -10 -9 -12
-3 -2 6 -9 5 -16 -4z"/>
<path d="M1980 1595 c-13 -14 -29 -25 -35 -25 -6 0 -18 -11 -25 -25 -11 -21
-11 -27 3 -43 10 -10 14 -21 11 -25 -3 -3 7 -5 23 -5 26 1 33 9 65 69 19 38
33 71 30 74 -13 13 -51 3 -72 -20z"/>
<path d="M2200 1579 c0 -6 -7 -9 -15 -5 -9 3 -15 0 -15 -9 0 -8 -5 -15 -11
-15 -5 0 -7 -4 -4 -10 3 -5 1 -10 -5 -10 -6 0 -9 -4 -6 -8 5 -8 -13 -67 -27
-89 -4 -6 -1 -18 7 -26 8 -8 13 -17 10 -20 -3 -3 2 -4 11 -3 9 1 21 9 26 17 8
13 13 6 10 -14 -1 -4 8 -3 19 3 24 13 25 19 6 46 -13 17 -13 21 -1 21 8 0 11
-5 8 -11 -4 -8 -3 -8 6 0 8 7 9 18 2 36 -7 18 -6 33 4 51 12 23 11 25 -3 19
-14 -5 -15 -3 -4 10 10 13 10 17 -3 22 -8 3 -15 1 -15 -5z"/>
<path d="M2620 1379 c0 -5 5 -7 10 -4 6 3 10 8 10 11 0 2 -4 4 -10 4 -5 0 -10
-5 -10 -11z"/>
<path d="M1431 1174 c0 -11 3 -14 6 -6 3 7 2 16 -1 19 -3 4 -6 -2 -5 -13z"/>
<path d="M1661 1161 c-38 -36 -41 -37 -53 -19 -7 9 -8 2 -4 -20 5 -27 2 -34
-17 -42 -20 -8 -9 -15 16 -11 5 1 6 -3 3 -8 -3 -5 1 -14 9 -21 8 -7 15 -18 15
-26 0 -7 10 -19 23 -25 12 -6 19 -8 15 -4 -7 8 32 76 63 110 22 24 18 61 -8
81 -25 18 -27 18 -62 -15z"/>
<path d="M1396 1158 c-16 -26 -22 -83 -11 -113 21 -58 25 -78 36 -168 7 -63
15 -95 21 -89 16 16 12 154 -7 208 -12 34 -15 65 -11 102 4 35 3 52 -5 52 -6
0 -9 7 -5 15 8 22 -2 18 -18 -7z"/>
<path d="M1524 1157 c-8 -22 -1 -30 21 -25 14 3 14 5 1 23 -14 19 -15 19 -22
2z"/>
<path d="M1946 628 c3 -5 10 -6 15 -3 13 9 11 12 -6 12 -8 0 -12 -4 -9 -9z"/>
<path d="M1966 612 c-2 -4 9 -9 25 -10 19 -2 28 2 24 8 -7 12 -42 13 -49 2z"/>
</g>
</svg>
