<?xml version="1.0" standalone="no"?>
<!DOCTYPE svg PUBLIC "-//W3C//DTD SVG 20010904//EN"
 "http://www.w3.org/TR/2001/REC-SVG-20010904/DTD/svg10.dtd">
<svg version="1.0" xmlns="http://www.w3.org/2000/svg"
 width="1000.000000pt" height="1000.000000pt" viewBox="0 0 1000.000000 1000.000000"
 preserveAspectRatio="xMidYMid meet">
<metadata>
Created by potrace 1.11, written by Peter Selinger 2001-2013
</metadata>
<g transform="translate(0.000000,1000.000000) scale(0.100000,-0.100000)"
fill="#000000" stroke="none">
<path d="M3018 7295 c-18 -15 -23 -25 -15 -28 7 -3 4 -6 -5 -6 -20 -1 -24 25
-5 32 6 3 -2 6 -20 6 -26 1 -34 -5 -47 -30 -9 -17 -18 -46 -22 -65 -3 -19 -11
-34 -18 -34 -6 0 -4 -5 4 -10 12 -8 11 -10 -7 -10 -12 0 -27 -9 -33 -20 -9
-16 -8 -19 7 -14 10 3 5 -2 -10 -11 -20 -12 -27 -22 -22 -33 5 -14 4 -15 -6
-4 -7 6 -21 12 -31 12 -10 0 -18 4 -18 8 0 5 -12 14 -26 20 -14 7 -23 8 -20 3
3 -5 -2 -12 -11 -15 -11 -5 -23 1 -35 16 -15 18 -17 19 -11 4 4 -13 3 -17 -5
-12 -6 3 -13 2 -17 -4 -3 -5 2 -10 11 -10 16 0 16 -1 -1 -14 -10 -7 -20 -24
-22 -37 -2 -12 -10 -31 -19 -40 -13 -15 -13 -17 0 -22 17 -7 30 8 21 23 -3 6
0 10 9 10 12 0 12 -5 3 -30 -8 -20 -17 -28 -26 -25 -11 4 -12 3 -1 -10 11 -13
9 -15 -11 -13 -18 2 -24 -2 -23 -14 1 -10 -2 -16 -6 -13 -11 7 -22 -24 -13
-37 3 -6 1 -8 -4 -5 -6 4 -16 0 -23 -8 -14 -17 -40 -20 -40 -5 0 5 -6 7 -13 4
-17 -6 -13 -70 5 -92 9 -10 9 -13 1 -9 -15 9 -26 -25 -19 -55 l6 -23 -11 23
c-7 12 -17 22 -22 22 -6 0 -2 6 9 14 18 14 17 15 -18 30 -46 20 -52 20 -45 2
6 -15 -19 -43 -29 -33 -9 9 -44 -25 -37 -36 3 -6 1 -7 -6 -3 -6 4 -14 0 -17
-8 -3 -9 -10 -14 -14 -11 -4 2 -20 -7 -34 -20 -15 -14 -33 -25 -41 -25 -8 0
-17 -5 -21 -11 -4 -8 0 -9 15 -4 33 10 25 -2 -9 -14 -22 -7 -29 -7 -24 1 4 7
3 8 -5 4 -6 -4 -9 -16 -6 -25 3 -11 0 -18 -8 -18 -9 0 -12 9 -9 24 2 13 -1 23
-7 23 -6 0 -10 -5 -8 -11 1 -6 -8 -15 -20 -20 -15 -5 -23 -5 -23 2 0 6 -5 7
-10 4 -6 -4 -8 -11 -5 -16 4 -5 -12 -9 -34 -9 -22 0 -43 -4 -46 -10 -3 -5 -11
-10 -16 -10 -6 0 -7 5 -4 10 9 15 -8 12 -35 -7 -24 -17 -25 -16 -10 2 14 17
13 18 -3 12 -11 -4 -30 -10 -43 -13 -13 -3 -22 -9 -20 -13 4 -6 -16 -9 -81
-13 -13 -1 -23 -6 -23 -10 0 -4 -9 -8 -20 -8 -11 0 -20 4 -20 8 0 4 -9 8 -20
9 -11 1 -18 -2 -15 -8 4 -5 2 -9 -3 -9 -17 0 -23 32 -10 48 11 13 10 15 -4 9
-10 -3 -17 -3 -17 1 1 4 1 20 0 35 -1 23 -5 27 -20 22 -11 -3 -22 -1 -26 5 -3
5 -15 10 -26 10 -10 0 -19 5 -19 11 0 6 7 8 18 4 14 -5 15 -4 5 6 -16 16 -17
39 -2 39 5 0 7 -5 3 -11 -4 -7 -1 -10 7 -7 8 3 13 11 11 18 -3 11 0 11 12 0
13 -10 16 -10 16 1 0 9 3 10 11 2 15 -15 2 -34 -19 -31 -12 2 -16 -3 -14 -17
6 -31 12 -32 33 -5 11 15 17 18 13 8 -4 -12 -1 -18 9 -18 8 0 14 8 13 18 -1
13 6 16 29 14 21 -2 26 0 16 7 -11 7 -11 9 0 14 8 3 3 4 -11 3 -14 -1 -31 -6
-38 -10 -7 -4 -12 -2 -12 3 0 6 4 11 9 11 5 0 7 9 4 20 -3 11 -9 20 -14 20 -5
0 -6 -7 -3 -15 5 -11 2 -13 -10 -9 -12 5 -14 10 -6 19 5 6 6 15 2 20 -4 4 3 2
16 -4 12 -6 22 -18 22 -26 0 -10 11 -14 35 -13 32 1 52 18 23 18 -7 0 -5 5 4
11 17 9 17 12 1 37 l-16 27 27 -27 c37 -38 67 -36 34 2 -7 8 -3 6 10 -4 22
-19 22 -19 23 5 0 22 1 23 9 4 5 -11 9 -15 9 -9 1 6 11 16 24 22 12 6 16 11
10 11 -7 1 -13 5 -13 11 0 5 6 7 14 4 8 -3 17 3 20 14 4 11 14 23 22 26 8 3
12 10 9 16 -3 6 1 7 10 4 11 -4 14 -2 10 9 -4 8 1 22 10 31 9 9 13 21 9 27 -4
8 -3 9 4 5 7 -4 16 3 21 17 6 14 14 28 20 31 15 10 45 76 37 83 -3 3 4 14 16
24 11 11 19 19 17 20 -2 0 -12 2 -22 4 -10 2 -14 -1 -10 -8 4 -7 0 -8 -11 -4
-14 5 -17 3 -12 -8 3 -8 1 -15 -4 -15 -5 0 -11 -9 -15 -20 -3 -11 -9 -19 -13
-19 -21 3 -43 -2 -38 -9 2 -4 1 -14 -3 -21 -7 -10 -13 -10 -30 -2 -12 7 -21 8
-21 2 0 -5 9 -13 20 -16 11 -4 18 -10 15 -15 -3 -5 -13 -6 -23 -3 -15 6 -15 4
2 -15 11 -12 14 -22 8 -22 -6 0 -13 4 -17 9 -3 5 -19 8 -35 6 -18 -3 -28 0
-25 5 4 6 15 10 26 10 22 0 25 13 7 27 -14 11 -48 9 -57 -4 -11 -15 -68 -43
-75 -36 -3 3 -6 -2 -6 -12 0 -14 -3 -15 -15 -5 -8 7 -15 8 -15 3 0 -5 -27 -22
-60 -38 -33 -16 -60 -33 -60 -37 0 -5 -4 -7 -8 -4 -5 3 -24 -5 -43 -16 -19
-12 -38 -23 -44 -23 -29 -5 -54 -18 -49 -26 3 -5 -2 -6 -10 -3 -10 4 -16 1
-16 -7 0 -12 -2 -12 -9 -1 -6 11 -10 10 -15 -3 -5 -14 -9 -15 -21 -5 -12 10
-15 10 -15 0 0 -7 -7 -10 -16 -6 -9 4 -13 2 -8 -5 4 -7 0 -9 -13 -5 -10 3 -35
-2 -56 -13 -20 -10 -34 -15 -31 -10 3 5 -2 6 -10 3 -9 -3 -14 -10 -11 -14 3
-5 -4 -6 -15 -3 -11 3 -20 10 -20 15 0 6 -7 8 -14 5 -11 -4 -13 -1 -9 11 5 14
3 14 -17 -3 -13 -11 -20 -14 -16 -7 4 7 2 12 -4 12 -7 0 -9 7 -6 17 6 15 5 15
-13 -1 -11 -10 -22 -13 -25 -8 -3 6 0 13 6 16 7 3 -2 3 -20 0 -21 -4 -32 -2
-32 6 0 10 -3 10 -14 1 -8 -7 -25 -9 -42 -5 -21 6 -26 4 -22 -8 9 -22 -61 -16
-78 7 -8 11 -14 13 -14 7 0 -14 -36 -16 -45 -2 -3 5 -12 7 -20 3 -20 -7 -19
12 1 31 8 9 13 22 11 29 -4 9 -6 9 -6 0 -1 -7 -6 -13 -12 -13 -8 0 -9 4 0 13
6 8 8 16 6 19 -3 3 6 4 20 3 26 -3 35 9 13 18 -8 3 -7 6 4 6 9 1 20 -4 23 -9
9 -15 64 20 58 37 -4 9 -11 6 -25 -13 -11 -14 -23 -23 -26 -20 -2 3 1 12 8 21
10 12 10 15 -4 15 -9 0 -16 5 -16 11 0 6 -7 8 -15 5 -9 -3 -18 0 -21 7 -7 19
-102 10 -140 -12 -17 -11 -37 -16 -43 -12 -7 4 -25 7 -41 6 -17 -1 -30 3 -30
9 0 8 -3 7 -8 0 -5 -9 -11 -8 -20 2 -10 11 -10 14 0 14 6 0 4 6 -6 13 -16 12
-17 15 -3 20 9 3 18 0 21 -9 3 -8 11 -14 18 -13 10 0 10 2 1 6 -7 2 -13 9 -13
15 0 6 7 8 15 4 13 -5 14 -2 4 15 -10 19 -8 20 13 15 12 -3 17 -3 10 0 -6 3
-10 10 -7 15 4 5 -3 5 -17 0 -13 -5 -22 -13 -21 -18 3 -16 -70 -5 -80 12 -5
10 -12 13 -16 8 -8 -13 -56 -28 -48 -16 8 13 -25 13 -40 0 -9 -6 -13 -5 -13 4
0 11 -2 11 -10 -1 -8 -12 -10 -12 -10 -1 0 9 -8 12 -25 9 -13 -3 -22 -1 -19 3
5 9 -16 13 -50 9 -12 -1 -16 2 -11 10 5 8 3 11 -6 8 -8 -3 -27 -1 -42 3 -22 6
-33 3 -48 -12 -10 -10 -19 -14 -19 -8 0 6 -7 8 -16 5 -9 -4 -24 -1 -32 6 -12
10 -14 10 -8 1 5 -9 -2 -13 -23 -13 l-31 0 0 -1621 c0 -1466 1 -1621 16 -1615
13 5 85 23 170 42 64 14 389 17 474 4 109 -17 116 -17 173 -19 27 0 46 -4 44
-8 -3 -5 11 -9 31 -11 21 -1 72 -13 114 -27 42 -14 82 -25 88 -25 5 0 29 -8
53 -19 23 -10 93 -35 154 -54 127 -41 185 -66 178 -77 -3 -5 14 -32 37 -62 24
-29 43 -57 43 -63 1 -5 7 -9 14 -7 7 1 10 -2 7 -7 -4 -5 15 -27 41 -48 27 -21
54 -46 61 -56 7 -9 17 -15 22 -12 5 3 19 -4 31 -16 15 -15 24 -18 32 -10 17
17 31 13 17 -4 -10 -13 -9 -15 11 -17 13 -1 31 -2 39 -3 8 0 21 -4 28 -9 8 -5
19 -1 28 10 9 11 12 13 8 5 -5 -10 -3 -13 8 -8 9 3 21 0 27 -6 8 -8 11 -7 11
3 0 9 5 8 15 -6 8 -10 15 -14 15 -7 0 7 7 10 17 6 12 -5 14 -3 8 8 -4 8 2 4
14 -9 12 -12 19 -27 16 -32 -3 -6 1 -10 9 -10 9 0 16 -5 16 -11 0 -5 -5 -7
-11 -3 -8 4 -7 0 1 -15 6 -12 15 -19 19 -17 4 3 6 -7 4 -22 -4 -22 -2 -24 7
-12 10 12 11 11 7 -7 -3 -14 4 -37 19 -58 13 -20 24 -42 24 -50 0 -8 5 -15 10
-15 6 0 10 -6 10 -13 0 -8 9 -24 20 -37 11 -13 20 -27 20 -32 0 -5 5 -6 10 -3
6 3 10 0 10 -8 0 -8 9 -22 20 -32 11 -10 20 -16 20 -12 0 3 15 -10 34 -28 19
-18 45 -36 58 -40 13 -4 37 -13 53 -20 51 -23 90 -23 82 -1 -6 15 12 26 46 27
12 0 17 3 10 5 -15 7 7 63 31 76 13 8 11 13 -18 38 -35 31 -53 39 -40 18 5 -7
3 -8 -5 -3 -9 5 -7 13 8 29 12 12 18 25 15 29 -9 9 16 38 27 31 5 -3 9 2 9 10
0 8 -8 19 -17 25 -10 5 -14 13 -10 17 5 5 12 2 16 -5 11 -18 20 -2 23 42 1 20
5 34 10 31 4 -3 5 -11 1 -19 -3 -8 0 -15 6 -15 12 0 15 46 4 53 -5 2 -2 2 5 1
18 -5 15 6 -10 25 -17 15 -19 19 -7 26 8 5 11 5 7 0 -4 -4 0 -14 10 -21 9 -7
19 -8 22 -4 3 5 12 5 20 0 13 -8 13 -10 -1 -10 -16 0 -36 -47 -24 -58 3 -3 5
0 5 7 0 7 5 9 10 6 6 -4 8 -11 5 -16 -4 -5 -2 -9 3 -9 4 0 9 -21 11 -47 1 -27
6 -49 12 -51 5 -2 9 -10 9 -18 0 -9 -4 -13 -9 -10 -5 4 -4 -10 1 -29 6 -19 15
-32 20 -29 4 3 8 -4 8 -15 0 -10 6 -22 13 -24 10 -4 10 -6 0 -6 -7 -1 -13 -6
-13 -12 0 -6 7 -9 15 -5 9 3 15 0 15 -9 0 -8 -4 -15 -10 -15 -5 0 -10 -5 -10
-11 0 -5 3 -8 8 -6 4 3 14 -2 22 -11 13 -14 12 -15 -2 -9 -12 4 -15 2 -11 -9
3 -7 11 -14 18 -14 7 0 15 -7 19 -15 3 -8 1 -15 -4 -15 -6 0 -10 -4 -10 -10 0
-5 3 -9 8 -9 28 5 40 -3 35 -21 -3 -11 0 -20 6 -20 6 0 11 -7 11 -16 0 -9 5
-12 13 -8 6 4 9 3 4 -1 -4 -5 0 -19 9 -33 8 -13 13 -30 10 -38 -3 -8 -1 -14 3
-14 12 0 51 -77 43 -85 -3 -3 1 -3 9 0 13 5 16 0 14 -19 -3 -26 8 -35 20 -16
3 6 1 10 -5 10 -6 0 -8 5 -4 11 5 8 8 8 13 0 4 -6 24 -12 45 -13 20 -1 32 -4
25 -8 -8 -6 -8 -9 2 -12 8 -3 20 1 27 9 8 7 18 10 24 7 7 -4 8 -2 4 5 -4 6
-12 9 -17 6 -5 -4 -9 0 -9 8 0 8 6 17 14 20 8 3 17 25 21 48 5 29 10 38 16 28
7 -12 9 -11 9 1 0 13 1 13 10 0 7 -10 10 -11 10 -2 0 7 -7 15 -15 18 -8 4 -15
11 -15 16 0 6 7 8 15 4 16 -6 16 14 0 26 -6 5 -5 8 2 8 7 0 10 7 7 15 -4 8 -1
15 5 15 6 0 11 5 11 11 0 5 -4 8 -9 5 -5 -4 -7 4 -4 15 4 15 0 27 -12 35 -12
9 -14 14 -6 14 8 0 20 -8 27 -17 9 -12 13 -13 14 -5 0 7 -11 24 -25 37 -13 14
-19 25 -13 25 7 0 6 6 -2 15 -11 13 -10 14 4 9 10 -4 15 -13 12 -21 -3 -8 -1
-11 4 -8 13 8 13 35 0 35 -5 0 -9 3 -9 8 4 24 -3 33 -21 27 -11 -3 -20 -2 -20
3 0 14 34 11 55 -7 19 -16 19 -16 2 12 -10 15 -14 27 -10 26 22 -4 21 3 -3 26
-15 14 -23 25 -17 25 5 0 14 -5 21 -12 9 -9 15 -9 23 -1 8 8 7 13 -2 18 -8 5
-10 4 -5 -3 4 -7 3 -12 -3 -12 -18 0 -17 23 2 45 23 25 32 76 13 69 -6 -2 -12
3 -13 13 -1 10 -4 30 -7 46 -3 16 0 27 6 27 6 0 9 3 5 6 -3 3 -15 3 -26 -1
-23 -7 -28 -30 -8 -38 6 -3 8 -6 2 -6 -5 0 -17 4 -25 9 -12 8 -10 14 14 39 23
24 32 28 43 19 12 -10 13 -7 7 18 -4 16 -7 34 -7 40 0 7 -6 10 -14 7 -7 -3
-13 0 -13 6 0 6 5 11 11 11 8 0 7 6 -2 17 -12 14 -12 16 0 12 8 -3 19 -19 25
-35 8 -22 16 -29 30 -26 19 4 18 5 -3 16 -22 12 -22 14 -5 30 12 13 13 17 3
14 -8 -1 -25 8 -38 21 -16 16 -19 22 -8 18 20 -7 21 -3 7 23 -7 13 -6 19 5 23
9 4 12 1 9 -8 -7 -18 4 -37 18 -29 6 4 5 10 -3 15 -10 6 -10 9 -2 9 7 0 17 -8
22 -17 6 -10 11 -13 11 -7 0 6 -9 22 -20 34 l-21 24 21 11 c11 6 17 15 13 19
-4 4 0 12 10 18 18 9 18 11 0 30 -18 21 -18 21 5 9 12 -6 22 -16 22 -21 0 -6
4 -10 8 -10 4 0 8 9 8 19 0 11 -3 18 -6 16 -3 -2 -12 0 -20 6 -13 7 -12 9 2 9
9 0 24 3 34 7 14 5 16 2 12 -15 -4 -12 0 -26 9 -33 12 -11 12 -14 -1 -21 -18
-10 -11 -35 16 -60 14 -12 16 -17 6 -21 -8 -4 -7 -6 5 -6 9 -1 17 -5 17 -11 0
-5 -7 -7 -15 -4 -8 4 -15 2 -15 -4 0 -14 43 -23 51 -11 4 7 8 5 12 -5 8 -21
-8 -29 -34 -16 -11 7 -24 9 -27 5 -3 -3 4 -8 16 -12 12 -3 22 -10 22 -15 0 -6
-9 -8 -20 -5 -17 4 -18 2 -10 -13 14 -26 30 -34 30 -16 0 8 4 18 10 21 18 11
10 -31 -10 -53 -11 -12 -20 -29 -20 -39 0 -11 6 -6 16 15 19 37 34 43 27 10
-3 -18 -2 -20 5 -8 6 8 9 31 8 50 -1 19 4 41 12 49 7 7 11 20 8 27 -3 8 0 11
9 8 8 -3 11 -13 8 -21 -5 -12 -3 -14 8 -8 8 5 11 5 6 -1 -5 -5 -14 -9 -20 -9
-7 0 -13 -11 -14 -25 -2 -23 -2 -23 6 -5 9 19 10 19 10 -2 1 -13 -3 -23 -9
-23 -16 0 -12 -27 5 -34 8 -3 23 -3 33 0 9 3 6 -1 -8 -9 -18 -11 -29 -12 -37
-5 -19 16 -16 -7 3 -26 8 -9 13 -16 9 -16 -3 0 3 -10 14 -22 22 -23 19 -41 -4
-32 -7 3 -11 13 -8 22 4 15 3 15 -6 2 -9 -12 -11 -11 -11 10 0 14 -11 32 -24
42 -23 17 -24 16 -29 -3 -4 -16 -2 -19 13 -14 18 6 37 -22 24 -34 -4 -3 -9 0
-11 7 -3 6 -12 12 -21 12 -15 0 -15 -2 -2 -11 11 -8 12 -12 3 -16 -7 -2 -13
-10 -13 -16 0 -8 4 -7 12 1 17 17 36 15 70 -9 l30 -22 -31 -19 c-38 -24 -38
-27 -6 -20 14 2 25 0 25 -6 0 -13 -29 -24 -42 -15 -7 3 -8 1 -4 -6 4 -6 13
-11 19 -10 29 4 47 -2 47 -15 0 -8 12 -17 26 -20 15 -4 24 -9 22 -12 -3 -2
-16 0 -30 5 -15 5 -30 6 -39 0 -12 -7 -12 -9 1 -9 13 0 13 -2 1 -9 -11 -7 -9
-10 10 -14 23 -4 23 -4 -3 -6 -14 0 -28 5 -31 12 -4 10 -7 10 -18 0 -7 -8 -8
-13 -2 -13 5 0 10 -12 9 -27 -1 -23 3 -28 27 -30 15 -1 25 2 22 8 -4 5 -1 9 4
9 19 0 12 -22 -9 -27 -11 -3 -17 -9 -14 -14 3 -5 -1 -9 -8 -9 -10 0 -10 -2 1
-9 16 -11 24 -41 10 -41 -4 0 -6 -7 -2 -16 5 -13 8 -13 15 -2 6 9 7 3 4 -17
-3 -16 -1 -37 4 -45 9 -13 11 -13 20 0 8 13 10 12 10 -2 0 -10 -5 -18 -11 -18
-8 0 -8 -4 1 -15 6 -8 9 -19 5 -26 -5 -8 0 -9 16 -4 24 7 24 7 4 -9 -11 -9
-14 -15 -6 -14 7 2 15 -5 16 -15 5 -26 33 -67 47 -67 6 0 8 -3 5 -7 -4 -3 1
-12 11 -20 16 -14 16 -14 -3 -9 -19 6 -19 6 -1 -9 10 -8 23 -12 27 -9 5 3 6
-2 3 -10 -3 -9 -1 -16 5 -16 6 0 11 -4 11 -10 0 -13 50 -61 59 -56 4 3 13 0
21 -6 12 -8 12 -9 -2 -4 -30 9 -20 -17 17 -47 l34 -27 25 37 c28 43 46 100 27
89 -6 -4 -11 -3 -11 3 0 5 9 13 20 16 17 5 26 29 21 58 -1 4 4 17 10 28 7 15
7 24 -1 34 -8 10 -7 16 7 24 10 6 12 11 5 11 -8 0 -10 8 -6 25 4 18 1 27 -11
31 -13 5 -14 9 -3 15 11 7 11 9 0 9 -9 0 -11 7 -7 21 5 14 2 25 -6 30 -10 6
-11 9 -1 9 6 0 12 8 12 18 -1 14 -3 14 -19 -6 -14 -16 -21 -18 -25 -10 -4 7
-4 3 -2 -9 3 -16 0 -20 -12 -16 -9 4 -13 2 -9 -4 3 -5 0 -10 -8 -10 -12 0 -12
4 2 19 15 17 15 20 3 28 -8 6 -10 10 -5 11 6 1 15 2 20 4 6 1 16 3 23 3 7 1
11 6 7 11 -3 5 0 13 5 16 7 5 5 12 -7 22 -17 13 -17 14 0 9 9 -3 17 -1 17 4 0
6 -7 10 -15 10 -8 0 -12 6 -9 14 4 9 -3 14 -21 14 -21 0 -23 -3 -13 -15 10
-13 9 -15 -7 -12 -13 3 -20 13 -21 27 -1 15 3 21 12 18 7 -3 16 -1 19 4 10 17
24 11 38 -16 11 -21 15 -23 20 -11 3 9 -1 18 -8 21 -9 3 -12 12 -8 22 4 12 3
15 -5 10 -7 -4 -12 -3 -12 2 0 6 8 13 18 17 15 6 13 9 -10 21 -16 8 -28 19
-28 24 0 15 11 12 27 -7 13 -17 13 -17 11 2 -2 13 2 19 11 17 12 -3 12 0 2 12
-10 11 -8 17 11 30 26 18 21 20 -16 6 -18 -6 -26 -6 -26 1 0 6 -7 3 -16 -5 -8
-9 -20 -16 -26 -16 -6 0 -1 9 11 19 13 12 18 22 11 26 -5 3 -10 11 -10 17 0 5
8 0 18 -12 13 -17 24 -20 45 -15 15 4 24 11 21 16 -3 5 -13 5 -24 -1 -11 -6
-21 -6 -24 -1 -3 5 1 12 10 15 8 3 12 11 8 17 -3 6 -2 14 4 18 12 7 4 61 -9
61 -5 0 -5 -8 -2 -17 6 -16 5 -16 -10 -4 -18 15 -23 51 -7 51 5 0 9 6 7 12 -1
7 8 14 21 16 12 2 22 7 22 12 0 5 -7 7 -15 4 -10 -4 -15 0 -15 11 0 9 5 13 10
10 6 -3 10 -1 10 4 0 6 -4 11 -10 11 -5 0 -10 5 -10 11 0 6 9 9 19 6 17 -4 18
-2 9 27 -6 17 -15 36 -20 43 -7 8 -3 10 11 6 26 -7 29 22 5 31 -15 6 -15 8 1
26 9 10 14 23 11 28 -3 5 4 12 16 15 15 4 18 3 10 -5 -6 -6 -8 -17 -5 -24 3
-8 -1 -14 -11 -14 -9 0 -16 -5 -16 -11 0 -7 10 -9 25 -7 13 3 23 2 22 -1 -1
-3 7 -18 17 -33 10 -15 15 -32 11 -38 -4 -6 2 -18 12 -28 11 -9 13 -13 6 -9
-9 7 -11 0 -6 -30 3 -21 6 -62 6 -90 0 -29 4 -53 10 -53 5 0 6 12 3 28 -5 18
-4 23 3 13 5 -8 10 -34 11 -58 3 -83 5 -91 17 -86 7 3 11 8 9 12 -2 3 0 15 4
26 5 15 8 10 11 -22 3 -23 1 -39 -3 -37 -5 3 -8 -2 -8 -10 0 -9 8 -16 18 -16
13 0 14 -2 3 -9 -17 -11 -5 -55 12 -44 7 4 6 -1 -2 -10 -12 -15 -9 -21 12 -18
11 2 8 -24 -4 -36 -8 -8 -5 -14 10 -23 13 -6 19 -16 14 -23 -13 -22 -10 -45 5
-39 12 4 14 1 9 -12 -6 -14 -3 -17 8 -12 10 3 13 2 10 -5 -4 -6 1 -17 11 -25
11 -9 13 -13 7 -9 -7 3 -13 1 -13 -5 0 -6 -4 -8 -10 -5 -5 3 -10 1 -10 -5 0
-7 7 -9 15 -6 9 3 15 1 14 -7 -3 -28 2 -48 11 -42 5 3 10 -3 10 -14 0 -15 4
-19 18 -14 15 6 15 5 3 -10 -12 -15 -9 -21 11 -18 4 0 5 -6 2 -14 -4 -9 1 -18
11 -21 13 -5 14 -9 3 -15 -10 -7 -9 -9 4 -9 9 0 19 6 21 13 3 7 6 5 6 -5 1
-10 -5 -18 -11 -18 -8 0 -5 -7 6 -15 11 -9 14 -15 7 -15 -9 0 -8 -4 3 -15 8
-8 19 -15 25 -15 14 0 42 -55 33 -65 -4 -5 1 -5 10 -2 11 4 19 0 23 -13 3 -10
23 -29 43 -41 20 -13 39 -26 42 -30 3 -3 16 -9 30 -13 21 -6 22 -5 8 4 -10 6
-18 19 -18 28 1 16 1 16 11 -1 9 -16 11 -16 27 -1 13 13 17 14 21 3 2 -7 -1
-15 -7 -17 -16 -5 -15 -19 1 -25 10 -4 14 8 16 46 1 28 4 54 7 58 2 4 0 10 -6
14 -5 3 -10 -1 -10 -9 0 -9 -5 -16 -11 -16 -6 0 -8 -8 -4 -19 4 -12 0 -21 -11
-25 -13 -5 -15 -1 -12 19 6 28 -8 35 -15 8 -3 -10 -4 -6 -4 9 1 15 5 24 9 22
4 -3 8 0 8 5 0 6 -10 11 -21 11 -16 0 -19 3 -12 12 6 7 13 30 17 51 4 20 11
37 16 37 6 0 10 9 10 20 0 14 6 20 18 18 10 -2 16 2 14 11 -2 8 3 11 13 8 12
-5 15 2 15 32 0 21 -3 41 -7 45 -5 4 -9 12 -9 17 -3 22 -5 23 -15 9 -8 -11 -9
-7 -5 18 3 18 1 32 -4 32 -6 0 -10 -4 -10 -10 0 -5 -7 -10 -15 -10 -12 0 -12
3 3 18 9 11 20 17 25 15 4 -2 7 2 7 10 0 10 -7 14 -22 10 -19 -4 -20 -3 -8 7
11 8 12 13 3 16 -7 3 -9 12 -6 20 3 9 0 12 -9 9 -16 -6 -19 31 -4 54 6 10 6
12 -2 7 -7 -4 -12 -4 -13 1 0 4 -2 16 -4 25 -2 10 1 20 5 23 13 8 0 35 -16 35
-8 0 -14 -4 -14 -10 0 -5 -5 -10 -11 -10 -5 0 -7 4 -4 10 3 5 2 10 -4 10 -5 0
-15 -8 -20 -17 -6 -10 -11 -13 -11 -7 0 13 24 35 36 33 5 -1 18 -1 29 0 17 1
18 3 5 11 -11 7 -11 10 -2 10 7 0 10 5 7 10 -9 15 -25 12 -25 -5 0 -12 -4 -11
-20 5 -20 20 -28 56 -10 45 6 -3 7 1 4 9 -3 9 -1 16 5 16 6 0 11 -6 11 -14 0
-8 6 -17 13 -19 6 -3 2 -6 -11 -6 -13 -1 -21 -5 -18 -10 10 -16 40 -1 53 25
10 21 9 24 -7 24 -11 0 -22 5 -25 10 -3 5 1 10 10 10 9 0 23 7 31 15 14 13 14
15 0 15 -10 0 -13 6 -9 16 5 13 7 13 14 2 5 -7 9 -8 9 -3 0 6 -4 17 -10 25 -5
9 -5 19 2 27 7 9 7 13 -1 13 -6 0 -11 -4 -11 -10 0 -5 -4 -10 -10 -10 -5 0
-10 7 -10 15 0 8 5 15 11 15 8 0 8 4 -1 15 -6 8 -8 20 -4 26 4 7 0 17 -8 23
-8 6 -23 24 -33 39 l-18 28 24 -4 c13 -2 18 -2 11 0 -7 3 -10 9 -7 14 4 5 -4
9 -17 9 -18 0 -20 2 -8 10 11 7 11 10 2 10 -10 0 -10 5 -2 21 6 11 9 25 6 32
-3 8 -5 8 -5 -1 -1 -8 -9 -25 -20 -38 -18 -22 -19 -23 -24 -5 -3 13 0 18 8 15
13 -5 30 24 20 34 -3 3 -5 0 -5 -6 0 -7 -8 -12 -17 -12 -15 0 -16 2 -3 10 10
6 11 10 3 10 -7 0 -13 8 -13 18 0 15 2 15 11 2 8 -12 9 -10 7 10 -2 15 -13 30
-28 38 l-25 13 28 -6 c20 -4 27 -1 27 10 0 8 -5 15 -12 15 -6 0 -9 3 -6 6 4 3
17 0 30 -7 22 -12 23 -11 5 8 -9 11 -14 23 -10 26 3 4 1 7 -5 7 -7 0 -12 -5
-12 -11 0 -5 -4 -8 -10 -4 -5 3 -7 12 -3 20 3 8 0 15 -6 15 -6 0 -11 4 -11 10
0 5 7 7 15 4 8 -4 15 -2 15 4 0 6 -6 12 -12 15 -7 2 -10 7 -7 11 4 4 14 0 23
-9 9 -9 16 -12 16 -6 0 6 5 11 11 11 5 0 7 -5 3 -12 -4 -6 -3 -8 4 -4 7 4 8
17 2 35 -7 26 -6 28 20 25 18 -2 30 2 34 11 3 8 0 15 -6 15 -6 0 -9 3 -5 6 3
3 11 3 17 -1 8 -5 7 -14 -4 -30 -10 -15 -12 -25 -5 -27 6 -2 12 -31 14 -64 3
-82 15 -131 26 -113 5 8 9 10 9 4 0 -5 -4 -17 -9 -25 -6 -8 -7 -19 -3 -25 11
-18 13 -47 2 -40 -6 4 -5 -4 1 -19 7 -14 15 -23 19 -21 5 3 10 -2 13 -9 3 -8
1 -16 -5 -18 -6 -2 -12 -18 -12 -35 -1 -17 4 -29 9 -27 7 3 9 -11 7 -36 -2
-23 1 -47 8 -55 10 -12 10 -15 -1 -15 -8 0 -6 -5 6 -14 10 -7 16 -20 13 -27
-3 -8 0 -23 8 -34 8 -10 14 -29 14 -42 0 -22 31 -48 43 -36 4 3 1 -8 -5 -25
-10 -27 -9 -34 7 -52 10 -11 25 -18 32 -16 7 3 13 1 13 -3 0 -5 -7 -12 -16
-15 -13 -5 -13 -10 5 -35 12 -16 35 -32 51 -36 16 -4 32 -10 34 -14 6 -10 -25
-8 -42 3 -26 16 -22 -2 8 -34 16 -18 30 -27 30 -20 0 6 5 8 11 4 8 -5 6 -10
-5 -16 -15 -8 -15 -11 1 -33 10 -12 22 -21 26 -18 11 6 66 -48 67 -64 0 -7 6
-13 13 -13 8 0 7 -4 -3 -10 -12 -7 -12 -10 -1 -10 7 0 11 -6 8 -14 -9 -22 28
-49 54 -41 14 5 19 4 15 -4 -4 -6 0 -14 9 -17 14 -6 14 -9 3 -16 -9 -7 -8 -8
6 -4 11 4 23 1 28 -6 6 -10 8 -10 8 -1 0 7 -9 17 -20 23 -11 6 -20 15 -20 21
0 5 12 2 28 -8 27 -17 27 -17 11 2 -9 11 -14 25 -12 32 2 6 -1 14 -7 18 -8 5
-6 11 5 19 14 10 14 14 1 31 -8 11 -18 16 -23 12 -4 -5 1 -15 11 -23 11 -8 15
-14 9 -14 -17 0 -35 28 -27 41 5 9 1 11 -14 7 -18 -5 -20 -3 -12 17 5 13 6 26
3 29 -4 3 -1 6 6 6 6 0 11 -7 9 -16 -2 -10 3 -18 10 -20 8 -2 9 -1 1 3 -8 4
-3 11 12 20 14 8 16 12 6 9 -12 -4 -17 -2 -14 6 2 7 9 12 14 11 5 -1 10 5 10
13 0 12 -3 12 -17 -1 -21 -19 -30 -19 -30 0 0 17 29 34 50 28 13 -4 13 -3 0 6
-13 9 -13 11 3 11 9 0 17 5 17 11 0 5 -4 7 -10 4 -6 -4 -7 6 -4 25 6 29 -7 42
-21 20 -3 -5 -1 -10 5 -10 6 0 8 -4 5 -10 -3 -5 -15 -10 -25 -10 -10 0 -21 -6
-23 -12 -4 -8 -6 -7 -6 3 -1 9 6 20 15 23 8 3 12 10 9 16 -3 5 -1 10 6 10 10
0 10 3 1 12 -7 7 -12 17 -12 23 0 5 5 2 11 -7 5 -10 20 -18 32 -17 12 0 16 3
9 6 -10 4 -10 8 -1 19 9 11 9 14 -1 14 -8 0 -10 9 -6 28 5 21 4 24 -4 12 -9
-13 -11 -12 -9 5 1 11 0 27 -4 35 -12 32 -17 99 -7 105 5 3 10 14 10 23 0 13
-2 14 -9 3 -6 -9 -14 -11 -26 -4 -16 9 -16 10 0 16 11 5 14 13 10 28 -5 14 -4
19 4 15 7 -5 9 -1 5 8 -3 9 -10 16 -16 16 -5 0 -6 -4 -3 -10 3 -5 -1 -10 -9
-10 -8 0 -18 -5 -22 -12 -5 -7 -2 -9 9 -5 8 3 18 0 20 -7 4 -9 -2 -11 -19 -8
-13 2 -24 6 -24 8 0 2 14 24 32 49 23 32 29 48 21 56 -8 8 -13 8 -17 0 -4 -6
-3 -11 3 -11 6 0 8 -7 5 -15 -4 -8 -10 -15 -15 -15 -4 0 -6 7 -3 15 4 8 1 15
-5 15 -6 0 -11 5 -11 11 0 5 5 7 10 4 9 -6 12 1 9 22 0 4 8 10 18 14 16 7 15
8 -4 8 -25 1 -28 8 -12 31 9 12 10 11 4 -5 -6 -20 -6 -20 13 0 18 19 18 20 0
23 -10 2 -18 10 -18 18 0 8 5 12 10 9 6 -3 10 -1 10 5 0 6 -10 15 -22 20 -18
7 -19 9 -5 9 19 1 21 9 8 30 -5 7 -15 10 -22 7 -8 -4 -5 0 5 8 15 12 17 19 9
27 -14 14 -36 2 -26 -14 4 -7 0 -6 -10 2 -20 16 -22 22 -4 18 7 -1 12 7 11 20
0 12 3 20 8 17 4 -3 8 2 8 12 0 13 3 14 15 4 10 -9 15 -9 15 -1 0 6 -4 12 -10
12 -5 1 -16 2 -22 3 -7 1 -14 10 -14 21 -1 11 -2 24 -3 30 -1 5 -6 4 -13 -3
-17 -17 -29 -15 -22 3 4 8 10 12 15 9 5 -3 9 -1 9 5 0 6 6 9 13 7 6 -1 9 -1 4
1 -4 3 -4 10 -1 15 4 7 2 8 -4 4 -8 -5 -12 1 -12 16 0 22 -34 88 -45 88 -4 0
-3 -5 1 -12 5 -8 2 -9 -9 -5 -10 3 -17 2 -17 -3 0 -6 4 -10 10 -10 5 0 7 -7 4
-15 -5 -12 -9 -11 -27 5 -11 11 -25 20 -30 20 -4 0 -2 7 7 15 8 8 21 13 28 10
8 -3 25 -1 39 4 13 5 18 10 10 10 -8 1 -11 7 -7 17 4 12 2 15 -9 10 -18 -7
-20 5 -2 23 10 10 8 12 -8 9 -21 -3 -35 -48 -15 -48 6 0 8 -5 5 -11 -5 -6 -12
-4 -22 8 -8 10 -12 12 -8 6 3 -7 1 -13 -4 -13 -12 0 -12 30 -1 75 7 27 15 18
11 -13 -2 -10 2 -10 18 0 22 14 36 38 22 38 -5 0 -12 -6 -14 -12 -3 -7 -4 3
-4 22 1 19 7 39 12 43 6 5 3 7 -7 3 -10 -3 -18 -1 -18 5 0 6 -4 8 -8 5 -4 -2
-14 0 -22 5 -11 7 -7 8 13 5 23 -4 27 -1 26 17 0 12 -4 31 -8 42 -5 11 -4 28
1 39 7 13 7 16 -2 11 -7 -4 -11 -1 -9 6 5 43 -2 79 -17 79 -11 0 -14 6 -9 20
4 12 2 20 -5 20 -7 0 -9 9 -6 23 3 12 3 16 0 10 -4 -10 -10 -9 -21 3 -15 14
-15 19 2 46 10 17 13 28 7 24 -6 -4 -19 2 -29 13 -9 11 -20 18 -25 15 -4 -3
-8 0 -8 5 0 6 7 11 15 11 8 0 15 -4 15 -9 0 -5 7 -12 16 -15 14 -5 15 -4 5 8
-8 9 -10 27 -6 46 4 20 3 30 -5 30 -6 0 -8 -5 -5 -10 8 -13 -12 -40 -29 -40
-7 0 -6 3 2 9 17 11 25 107 10 134 -6 12 -18 27 -27 33 -18 14 -19 78 -1 98 6
8 31 24 56 35 41 19 63 41 29 27 -8 -3 -15 0 -15 5 0 7 11 9 24 7 14 -3 30 -2
36 2 6 4 -6 7 -26 8 -21 1 -43 -3 -50 -9 -14 -12 -54 -3 -54 12 0 5 4 9 9 9 5
0 12 8 16 18 5 14 4 15 -6 5 -18 -18 -26 -16 -32 7 -4 16 0 19 22 16 14 -2 20
-1 13 1 -10 4 -9 8 5 18 13 9 31 11 61 5 23 -4 39 -3 36 1 -3 5 5 9 18 9 18 0
20 -2 8 -10 -29 -18 -4 -17 35 2 22 10 30 16 17 14 -12 -2 -20 -1 -17 4 3 4
16 10 30 12 13 3 22 2 20 -2 -2 -4 3 -7 11 -7 8 0 13 6 10 13 -3 8 0 16 6 20
7 4 8 3 4 -4 -4 -7 -2 -13 3 -13 6 -1 16 -3 21 -4 6 -1 15 -3 20 -4 6 0 10 -8
10 -16 0 -18 2 -18 45 -1 18 8 36 11 40 8 4 -4 5 -2 3 3 -3 12 48 65 56 57 3
-3 0 -12 -7 -21 -11 -14 -10 -14 6 -2 27 22 110 30 126 13 7 -7 20 -11 28 -8
8 3 26 6 40 6 15 0 23 3 20 7 -4 3 -26 6 -49 6 -26 0 -32 2 -15 4 18 3 25 9
20 16 -4 7 0 6 10 -2 9 -7 24 -11 32 -7 8 3 15 0 15 -7 0 -7 9 -1 20 13 19 24
19 24 15 3 -2 -13 0 -25 6 -28 5 -4 9 6 9 20 0 22 2 24 14 13 8 -7 11 -17 8
-22 -3 -6 3 -6 14 -2 22 9 26 10 74 2 19 -3 40 0 47 6 7 6 13 6 13 1 0 -5 9
-9 19 -9 11 0 17 4 15 8 -3 4 0 8 5 8 6 0 11 -4 11 -10 0 -5 7 -10 16 -10 8 0
12 5 8 11 -5 8 -1 8 14 0 11 -6 35 -11 52 -11 17 0 41 -5 52 -11 16 -8 19 -8
13 1 -5 9 -1 10 14 5 13 -4 21 -2 21 6 0 8 4 8 13 2 20 -16 98 -14 124 2 17
11 41 15 81 12 l57 -3 -65 -4 -65 -3 70 -7 c39 -4 85 -10 104 -15 25 -6 32 -5
27 4 -4 6 -13 11 -19 10 -27 -3 -47 2 -47 11 0 7 6 7 18 2 9 -5 23 -7 30 -5 7
3 19 0 27 -7 8 -6 19 -9 25 -5 6 4 17 2 24 -5 17 -13 66 -3 66 14 0 8 2 8 8 0
11 -16 67 -33 82 -24 10 6 8 9 -6 13 -14 4 -13 5 6 6 15 0 31 6 37 12 7 7 12
6 16 -5 3 -8 1 -18 -5 -22 -7 -5 -8 -2 -3 6 5 8 3 11 -5 8 -19 -6 -25 -28 -7
-28 8 0 27 12 42 28 21 20 27 22 22 8 -6 -14 -4 -17 10 -12 9 4 20 1 25 -6 6
-11 8 -11 8 0 0 7 -7 15 -15 18 -8 4 -15 10 -15 15 0 6 10 4 23 -2 12 -7 24
-13 27 -13 3 -1 4 -7 3 -15 -1 -9 2 -10 10 -2 13 13 41 15 33 2 -4 -5 3 -7 13
-4 11 3 22 12 25 20 3 8 10 11 16 8 5 -3 10 1 10 9 0 10 -9 16 -24 16 -19 0
-23 -4 -19 -20 3 -11 1 -20 -4 -20 -8 0 -9 11 -4 52 1 3 11 4 23 0 17 -4 20
-2 15 11 -4 10 -4 17 -1 17 2 0 9 -12 14 -26 8 -21 13 -24 24 -15 7 6 22 8 31
4 10 -3 16 -2 13 3 -4 5 5 9 18 9 13 0 24 -4 24 -10 0 -5 5 -3 10 5 8 13 11
12 25 -5 14 -17 16 -17 11 -2 -6 19 10 24 17 5 3 -8 6 -6 6 5 1 18 41 25 41 6
0 -5 -5 -7 -12 -3 -7 4 -8 3 -4 -5 4 -6 13 -8 19 -4 7 4 21 9 32 10 11 2 26
11 34 21 13 16 13 16 8 -1 -6 -15 -4 -16 15 -6 11 6 37 8 59 5 24 -4 40 -2 45
6 5 8 2 9 -9 5 -9 -3 -19 -1 -23 5 -4 6 -3 8 3 5 6 -4 21 1 32 11 22 17 22 17
-14 19 -26 2 -35 -1 -35 -13 0 -13 -10 -15 -55 -12 -30 1 -55 0 -55 -4 0 -3
-10 -4 -22 0 -16 4 -18 7 -8 10 8 3 20 11 27 18 10 9 9 15 -3 24 -12 11 -13
10 -8 -4 4 -11 -2 -20 -23 -29 -19 -8 -28 -17 -25 -27 4 -12 2 -13 -10 -3 -11
10 -17 10 -27 0 -10 -9 -12 -9 -9 3 2 10 -3 14 -16 12 -10 -2 -16 0 -13 5 3 4
-6 8 -19 8 -15 0 -22 -5 -19 -13 3 -9 -3 -10 -20 -6 -22 5 -24 3 -18 -12 6
-18 6 -18 -9 -3 -17 16 -68 15 -68 -1 0 -4 -8 -10 -17 -13 -10 -2 -27 -8 -38
-12 -19 -7 -19 -7 -2 6 16 13 16 15 -4 27 -12 8 -18 9 -15 3 4 -6 2 -20 -4
-31 -8 -16 -8 -20 3 -20 8 0 21 -7 28 -17 12 -14 10 -14 -21 2 -44 22 -54 37
-35 51 13 10 13 12 -4 17 -11 2 -42 4 -70 3 -28 -2 -51 2 -51 7 0 5 -8 1 -18
-10 -9 -10 -14 -14 -10 -8 8 13 5 41 -6 52 -4 4 -7 3 -6 -2 4 -20 0 -35 -11
-35 -6 0 -9 7 -5 15 4 12 2 13 -14 2 -11 -6 -20 -16 -20 -20 0 -5 -7 -1 -16 7
-8 9 -19 14 -24 11 -5 -3 -11 -1 -15 4 -3 5 -15 8 -26 6 -12 -3 -33 2 -46 9
-23 12 -24 14 -8 29 9 9 12 17 6 17 -5 0 -16 -7 -24 -15 -13 -13 -16 -12 -22
3 -3 9 -1 18 4 20 6 2 9 8 5 13 -5 9 -34 -13 -34 -27 0 -3 10 -15 22 -25 11
-11 16 -19 10 -19 -7 0 -20 8 -31 19 -17 17 -17 20 -2 45 8 14 21 26 27 26 7
0 14 7 18 15 3 8 1 15 -4 15 -6 0 -10 4 -10 9 0 14 37 20 50 7 9 -8 11 -8 8 3
-2 10 9 14 44 13 25 0 51 -3 57 -6 6 -4 11 -2 11 5 0 10 3 10 12 1 7 -7 17
-12 22 -12 6 0 4 5 -4 10 -10 6 2 9 40 8 30 -1 74 1 98 5 26 3 40 2 37 -4 -4
-5 -1 -9 4 -9 6 0 11 3 11 8 0 10 149 12 177 1 14 -5 33 -5 48 1 25 10 36 -3
13 -14 -7 -3 4 -5 25 -3 20 2 37 -1 37 -6 0 -4 6 -5 13 0 6 4 20 6 31 4 12 -2
16 1 11 10 -6 8 -4 10 4 5 7 -5 10 -10 7 -13 -3 -3 1 -11 7 -18 14 -15 40 -8
30 8 -3 6 4 3 16 -6 13 -8 29 -13 37 -10 8 3 16 -1 19 -9 4 -10 16 -13 35 -10
17 2 36 -1 44 -7 11 -9 15 -9 20 1 5 10 7 10 12 1 3 -7 10 -13 15 -13 6 0 7 5
3 12 -5 7 -3 8 5 3 8 -4 10 -17 7 -34 -5 -17 -4 -21 3 -12 5 7 13 11 19 7 5
-3 12 1 15 8 3 8 1 17 -6 20 -9 3 -8 5 1 5 7 1 10 6 6 13 -4 6 -3 8 4 4 11 -6
10 -26 -3 -59 -4 -10 -3 -17 4 -17 6 0 11 -8 11 -17 0 -14 2 -15 9 -4 5 7 13
11 18 8 6 -4 8 4 5 18 -2 15 0 25 7 25 7 0 10 -3 8 -7 -2 -5 4 -16 15 -25 10
-10 18 -13 18 -8 0 6 7 10 16 10 9 0 12 5 8 12 -4 7 -3 8 5 4 6 -4 9 -11 7
-15 -3 -4 -1 -13 5 -21 7 -13 9 -12 9 2 0 9 5 20 12 24 8 5 9 0 5 -17 -6 -23
-6 -23 9 -4 17 23 58 30 50 9 -9 -24 13 -15 30 11 9 14 19 23 22 21 3 -3 -1
-12 -8 -21 -9 -11 -9 -15 -1 -15 7 0 9 -5 5 -11 -4 -8 -9 -7 -15 2 -7 11 -9
11 -9 1 0 -7 -8 -15 -17 -19 -10 -3 -28 -18 -40 -32 -12 -14 -22 -20 -23 -13
0 6 5 12 10 12 6 0 10 8 10 18 0 14 -2 15 -10 2 -8 -12 -13 -13 -30 -2 -12 7
-20 8 -20 2 0 -5 5 -10 10 -10 6 0 9 -10 9 -22 -1 -17 -2 -19 -6 -5 -5 19 -18
23 -28 8 -3 -6 3 -15 14 -21 12 -6 22 -6 25 -1 7 10 25 9 44 -2 11 -8 17 4 13
26 -1 5 3 6 9 2 5 -3 10 -2 10 4 0 5 -6 12 -12 14 -7 3 -3 6 10 6 12 1 22 5
22 9 0 4 10 8 21 9 24 2 52 23 31 23 -7 0 -12 5 -12 11 0 18 22 -2 36 -35 8
-18 13 -24 14 -13 0 9 5 17 10 17 6 0 10 -7 8 -16 -2 -10 3 -19 11 -22 10 -3
12 0 8 11 -8 22 8 30 32 17 26 -13 38 4 19 28 -12 15 -11 16 5 3 10 -8 16 -22
14 -33 -5 -19 8 -25 18 -8 3 6 18 7 32 4 20 -5 24 -4 19 7 -4 8 -1 6 8 -5 8
-10 19 -15 25 -11 6 3 11 1 11 -4 0 -6 5 -11 10 -11 6 0 10 7 10 15 0 8 5 15
11 15 5 0 7 -5 3 -12 -5 -8 -1 -9 12 -4 12 4 8 -2 -11 -19 -16 -15 -31 -21
-33 -16 -2 6 -8 9 -13 5 -5 -3 -9 0 -9 7 0 7 -3 9 -6 6 -4 -3 -16 0 -27 8 -15
11 -24 12 -34 4 -7 -6 -20 -9 -28 -5 -8 3 -15 0 -15 -7 -1 -7 -6 -5 -14 6 -16
21 -30 23 -23 3 6 -16 -19 -30 -35 -19 -6 3 -25 6 -42 5 -17 -1 -38 3 -45 8
-10 6 -20 2 -33 -12 -10 -12 -18 -22 -18 -23 0 -1 22 1 50 5 29 4 54 2 60 -4
7 -7 10 -6 10 2 0 7 5 12 11 12 5 0 7 -4 4 -10 -4 -6 1 -7 11 -3 12 4 15 3 10
-6 -6 -9 0 -10 21 -5 15 4 30 11 31 16 2 4 9 8 15 8 8 0 7 -4 -1 -12 -19 -19
-14 -30 10 -22 12 3 44 7 70 7 26 1 48 4 48 8 0 3 12 5 28 3 15 -2 19 -1 9 2
-24 7 -11 24 18 24 34 0 56 10 49 24 -3 6 4 0 15 -13 12 -13 27 -21 35 -18 8
3 20 -1 26 -9 7 -8 17 -14 24 -14 6 0 -1 11 -14 24 -15 14 -29 20 -35 15 -7
-5 -16 0 -23 12 -7 10 -8 19 -3 19 5 0 11 -6 14 -12 3 -10 7 -10 18 -2 8 6 22
11 31 11 13 0 15 -4 8 -17 -15 -28 1 -32 29 -8 14 13 20 16 13 6 -14 -18 0
-34 20 -22 6 4 8 3 5 -2 -3 -6 3 -16 15 -23 11 -7 17 -8 13 -2 -6 10 13 16 43
12 6 -1 12 5 12 14 0 8 5 15 10 15 13 0 13 -6 0 -30 -8 -15 -5 -19 15 -22 14
-3 25 -1 25 3 0 5 -7 9 -17 9 -9 0 -13 3 -9 8 11 10 56 10 56 -1 0 -4 9 -6 19
-2 11 3 22 1 26 -4 4 -7 -1 -8 -12 -4 -14 5 -15 3 -7 -6 8 -9 18 -10 30 -4 11
5 39 9 64 7 27 -1 52 4 61 13 14 11 17 11 22 1 3 -8 17 -13 33 -12 16 1 37 3
47 3 12 1 16 6 11 14 -6 10 -4 10 7 0 7 -7 38 -13 69 -13 36 0 50 3 41 9 -10
6 -2 9 23 9 20 0 42 5 49 11 7 5 24 8 38 5 19 -5 21 -3 9 5 -9 6 -10 11 -3 11
6 0 19 -7 27 -16 15 -14 17 -14 24 3 4 11 19 19 37 21 17 1 42 4 58 6 15 2 37
4 50 5 18 1 20 3 7 12 -12 9 -11 10 5 4 11 -4 34 -9 52 -11 26 -3 31 -1 27 11
-8 20 -49 28 -177 34 -11 1 -15 6 -11 12 5 8 1 8 -14 0 -12 -6 -23 -7 -26 -2
-3 4 -24 11 -46 15 -28 4 -39 10 -34 19 4 6 4 9 -1 5 -4 -4 -15 -3 -22 4 -9 7
-17 8 -21 2 -4 -5 -27 -10 -51 -11 -30 0 -39 2 -30 9 10 7 8 8 -8 5 -13 -3
-23 -2 -23 2 0 5 -38 8 -85 8 -53 -1 -85 -5 -85 -11 0 -6 -5 -4 -10 4 -5 8
-10 11 -10 5 0 -5 -11 -10 -24 -10 -13 0 -22 5 -19 10 2 6 -7 11 -19 12 -18 2
-20 0 -8 -7 8 -5 11 -10 5 -10 -17 1 -45 26 -37 34 4 4 0 6 -8 4 -8 -2 -18 -7
-22 -13 -5 -6 -8 -5 -8 3 0 6 -10 12 -22 12 -19 0 -20 -2 -8 -11 12 -9 12 -10
-3 -5 -10 3 -21 6 -24 6 -3 0 0 6 6 14 10 12 8 13 -9 9 -12 -3 -19 -11 -16
-19 3 -7 0 -16 -6 -20 -6 -4 -8 -3 -5 2 3 6 -14 14 -39 20 -24 6 -44 7 -44 2
0 -12 -38 -10 -45 2 -5 8 -11 7 -21 -1 -11 -9 -14 -9 -14 1 0 8 -9 10 -26 6
-16 -4 -23 -3 -19 3 4 7 -18 11 -62 11 -60 0 -169 6 -183 11 -3 1 -9 2 -15 3
-5 1 -25 5 -43 10 -20 5 -38 4 -45 -2 -8 -7 -18 -6 -31 4 -14 10 -23 11 -33 3
-9 -8 -13 -8 -13 -1 0 6 -17 14 -37 17 -81 13 -93 17 -87 26 3 5 0 9 -5 9 -6
0 -11 -5 -11 -10 0 -6 -19 -9 -44 -8 -73 5 -42 24 40 25 53 0 79 5 85 14 7 12
9 12 9 0 0 -7 6 -11 15 -7 8 3 15 0 15 -7 0 -8 3 -8 9 2 5 8 16 11 30 6 31 -9
26 1 -9 19 -17 8 -28 10 -25 5 4 -5 -1 -9 -9 -9 -9 0 -16 4 -16 9 0 5 -11 8
-25 6 -14 -1 -25 1 -25 4 0 4 -19 5 -42 3 -34 -4 -40 -2 -35 11 4 11 2 14 -9
10 -7 -3 -14 0 -14 6 0 6 8 11 18 12 11 0 7 5 -13 14 -16 8 -38 11 -49 8 -12
-3 -16 -1 -12 6 5 7 -9 12 -43 13 -83 2 -86 3 -92 11 -3 4 -11 2 -18 -6 -9
-12 -2 -16 41 -22 29 -4 64 -10 78 -13 14 -2 39 -5 56 -5 24 0 31 -4 27 -15
-3 -8 0 -18 8 -23 10 -6 8 -9 -9 -9 -13 0 -20 4 -17 10 3 6 2 10 -4 10 -5 0
-13 -4 -16 -10 -3 -5 -15 -10 -26 -10 -11 0 -18 3 -16 8 3 4 -31 8 -74 8 -43
1 -79 -3 -79 -8 0 -5 -5 -6 -11 -2 -7 4 -9 0 -5 -14 4 -12 2 -23 -5 -28 -7 -4
-9 -3 -6 3 4 6 0 16 -8 23 -13 11 -14 10 -10 -3 7 -17 -10 -32 -20 -17 -4 6
-11 8 -16 4 -11 -6 -40 26 -33 37 2 3 -8 4 -21 1 -14 -2 -25 -11 -25 -19 0
-10 -6 -13 -16 -9 -9 3 -18 6 -20 6 -2 0 -4 8 -4 18 0 9 -4 13 -8 7 -11 -16
-34 -17 -43 -3 -11 17 -11 31 0 24 5 -3 12 1 15 10 4 10 12 14 22 10 9 -4 23
-1 30 5 11 9 14 8 14 0 0 -8 6 -7 16 3 8 9 19 14 24 11 4 -3 11 2 14 10 4 13
2 13 -14 5 -26 -14 -33 -13 -26 6 5 14 4 15 -9 4 -11 -9 -15 -9 -15 -1 0 7 -4
9 -10 6 -6 -3 -10 -1 -10 4 0 15 -27 14 -33 -1 -3 -7 -6 -3 -6 8 -1 25 -24 37
-40 21 -6 -6 -14 -7 -18 -3 -4 4 -2 11 6 15 10 6 9 10 -4 15 -23 9 -33 7 -17
-3 11 -7 11 -9 -2 -14 -9 -4 -16 -2 -16 4 0 6 -4 7 -10 4 -5 -3 -10 -1 -10 6
0 7 -10 9 -24 7 -14 -3 -31 -1 -38 4 -10 7 -8 8 5 4 12 -4 17 0 17 13 0 14 -7
18 -30 17 -30 -1 -40 -11 -18 -18 9 -3 9 -6 1 -11 -6 -4 -19 0 -27 9 -10 10
-16 11 -16 3 0 -9 -4 -8 -15 1 -10 9 -15 9 -15 1 0 -10 14 -15 33 -12 5 1 6
-3 2 -9 -13 -21 -69 4 -57 25 3 6 -3 3 -13 -5 -17 -14 -18 -13 -12 5 l7 20
-16 -20 c-13 -16 -15 -16 -11 -3 3 10 2 20 -3 23 -5 3 -7 11 -4 18 2 7 -4 13
-14 14 -10 1 -19 -5 -19 -12 0 -8 4 -12 8 -10 12 8 18 -21 7 -36 -8 -12 -9
-11 -5 2 3 9 -3 21 -14 27 -16 10 -21 10 -26 -4 -5 -13 -7 -13 -14 -2 -7 11
-11 10 -19 -2 -6 -9 -10 -10 -10 -3 0 7 8 17 18 22 9 6 11 11 5 11 -7 0 -13 7
-13 15 0 9 -6 15 -12 13 -7 -2 -15 1 -18 6 -3 5 2 10 10 12 18 2 70 22 70 26
0 9 -60 3 -60 -6 0 -6 -5 -3 -11 7 -8 14 -14 15 -24 7 -9 -8 -14 -7 -18 3 -4
11 3 13 30 11 19 -1 32 0 29 3 -5 6 -28 10 -64 12 -7 1 -11 5 -8 10 6 9 -16
21 -37 21 -7 0 -6 -4 3 -10 8 -5 10 -10 5 -10 -6 0 -18 9 -28 20 -9 11 -23 20
-31 20 -8 0 -23 3 -33 7 -16 6 -17 5 -3 -13 14 -17 13 -18 -1 -7 -9 7 -20 9
-24 5 -5 -4 -5 -2 -2 4 4 7 0 15 -9 18 -8 3 -12 2 -9 -4 3 -6 1 -10 -5 -10 -6
0 -13 6 -15 13 -3 7 -22 12 -48 11 -23 -1 -52 3 -64 7 -13 5 -25 4 -28 -1 -4
-6 -11 -10 -16 -10 -6 0 -8 4 -4 9 7 13 -36 10 -53 -2 -9 -7 -11 -5 -5 8 5 15
3 17 -11 12 -10 -4 -49 -7 -87 -7 -53 0 -69 -3 -64 -12 4 -7 -1 -4 -9 6 -14
18 -21 15 -17 -6 0 -5 -9 -8 -21 -8 -19 0 -20 -2 -8 -11 12 -8 10 -9 -8 -4
-35 10 -135 7 -165 -4 -15 -6 -34 -8 -42 -5 -8 4 -15 2 -15 -4 0 -5 -17 -13
-37 -17 -21 -4 -42 -10 -48 -14 -5 -4 -41 -16 -80 -26 -38 -10 -74 -22 -79
-26 -6 -5 -18 -9 -29 -9 -10 0 -16 -4 -13 -9 4 -5 -2 -7 -13 -4 -10 3 -32 -2
-49 -11 -16 -8 -32 -12 -36 -9 -3 4 -6 1 -6 -6 0 -7 -5 -9 -10 -6 -6 4 -16 2
-23 -3 -7 -5 -40 -18 -74 -27 -37 -10 -60 -22 -56 -28 3 -6 1 -7 -6 -3 -15 10
-73 -3 -65 -15 3 -5 14 -9 25 -9 11 0 18 3 16 8 -3 4 13 6 35 5 22 0 44 -6 47
-12 8 -12 51 -3 51 10 0 12 -14 11 -26 -1 -8 -8 -15 -6 -23 4 -11 13 -7 14 28
11 22 -2 43 1 47 6 3 5 10 7 15 4 5 -4 9 -2 9 3 0 9 4 10 52 15 16 2 31 6 34
10 4 4 18 4 31 1 16 -4 31 0 44 12 11 10 20 14 19 9 -5 -21 1 -27 13 -16 8 6
35 12 60 14 36 3 47 1 47 -10 0 -8 3 -12 8 -10 14 9 51 -12 62 -35 11 -22 10
-21 -9 2 -20 25 -20 25 -36 5 -14 -16 -16 -17 -11 -3 4 15 3 16 -14 6 -14 -9
-16 -15 -7 -20 7 -5 0 -6 -15 -2 -28 6 -41 -10 -15 -18 6 -3 -3 -5 -20 -5
l-32 0 29 29 c17 15 30 32 30 36 0 4 -17 8 -38 9 -34 1 -33 0 8 -13 12 -4 12
-6 0 -14 -8 -5 -18 -6 -22 -4 -5 3 -21 7 -36 9 -15 2 -21 2 -14 -1 17 -8 15
-24 -3 -24 -8 0 -15 -4 -15 -9 0 -27 -60 -13 -87 19 -8 9 -12 11 -13 3 0 -6 7
-19 16 -27 13 -14 13 -16 1 -16 -9 0 -17 -3 -20 -7 -2 -5 -2 -2 -1 5 2 6 -4
12 -13 12 -13 0 -14 3 -5 12 15 15 15 28 1 28 -5 0 -8 -4 -5 -8 5 -8 -37 -52
-49 -52 -3 0 -1 9 5 20 14 26 -1 26 -20 1 -7 -11 -17 -18 -22 -15 -5 3 -17 -5
-28 -18 -14 -16 -18 -18 -14 -5 5 13 2 16 -12 10 -12 -4 -15 -3 -10 5 4 7 2
12 -3 12 -6 0 -11 -5 -11 -11 0 -5 -4 -7 -10 -4 -5 3 -10 1 -10 -5 0 -6 -6
-18 -14 -26 -17 -17 -66 -36 -66 -26 0 4 -13 7 -30 7 -16 1 -30 -3 -30 -8 0
-4 -5 -5 -10 -2 -6 4 -8 11 -5 16 4 5 1 9 -5 9 -7 0 -9 -8 -5 -20 5 -16 3 -19
-11 -13 -13 5 -15 3 -9 -7 5 -8 4 -11 -3 -6 -6 4 -9 14 -6 24 5 15 4 15 -9 -1
-15 -18 -34 -7 -22 13 3 6 4 10 1 10 -3 0 -10 -10 -17 -21 -8 -15 -8 -19 0
-15 17 11 13 0 -6 -15 -11 -10 -14 -10 -9 -1 11 18 -4 15 -27 -5 -19 -17 -19
-17 -13 3 4 14 2 21 -8 21 -9 0 -13 -4 -10 -9 3 -4 -2 -8 -10 -8 -15 0 -21
-12 -17 -33 1 -5 -3 -6 -8 -3 -5 3 -7 14 -4 25 3 12 -2 20 -16 24 -12 3 -21 1
-21 -4 0 -5 7 -9 16 -9 18 0 14 -22 -6 -28 -8 -3 -10 0 -5 9 5 8 5 11 0 7 -4
-4 -13 -2 -19 5 -6 7 -10 10 -9 8 2 -2 -2 -10 -9 -18 -8 -11 -7 -12 6 -7 10 4
16 1 16 -8 0 -7 -9 -14 -20 -15 -15 -1 -21 7 -26 33 -3 19 -10 37 -15 40 -5 3
-7 9 -4 14 3 5 -4 25 -16 45 -12 20 -19 39 -15 42 3 4 -2 15 -11 26 -11 12
-12 17 -4 12 16 -9 8 8 -17 37 -8 10 -12 24 -9 33 8 18 -14 20 -31 3 -7 -7
-12 -9 -12 -6 0 4 7 14 17 23 13 13 14 18 3 25 -7 4 -9 13 -5 20 6 10 3 12
-11 8 -14 -4 -20 0 -20 12 0 10 5 17 11 16 5 -2 7 -1 3 1 -5 3 -8 9 -8 15 0
14 -26 38 -42 38 -10 0 -10 2 1 9 12 8 12 12 2 25 -8 9 -10 16 -7 16 4 0 1 10
-6 23 -7 12 -11 26 -10 30 1 5 -2 6 -8 2 -5 -3 -11 -1 -11 4 -1 6 -2 16 -3 22
-2 17 -58 69 -68 63 -5 -3 -8 -2 -7 3 3 17 -14 54 -20 44 -4 -6 -12 -7 -21 -1
-10 7 -11 10 -2 10 6 0 12 5 12 11 0 6 -9 8 -22 4 -16 -4 -19 -4 -9 3 15 11 6
36 -10 27 -5 -4 -9 -1 -9 4 0 6 -7 11 -15 11 -8 0 -15 5 -15 11 0 5 4 7 10 4
6 -4 7 1 3 11 -4 11 -8 13 -11 6 -2 -7 -8 -12 -13 -12 -6 0 -7 6 -3 13 5 9 4
9 -6 0 -11 -10 -11 -15 0 -28 10 -12 11 -18 1 -28 -10 -9 -11 -8 -6 6 8 19
-10 24 -19 5 -3 -7 -3 -1 0 15 4 16 2 27 -4 27 -6 0 -14 9 -17 20 -3 11 -12
20 -20 20 -8 0 -17 9 -20 20 -4 11 -10 18 -15 15 -5 -3 -15 2 -23 10 -9 8 -23
15 -31 15 -9 0 -16 7 -16 15 0 8 -7 15 -16 15 -14 0 -14 -2 1 -16 9 -9 14 -19
11 -21 -3 -3 -12 2 -21 11 -22 21 -28 20 -15 -3 7 -13 7 -27 0 -43 -10 -22
-10 -21 -5 5 4 19 1 27 -8 27 -21 0 -28 -12 -15 -27 6 -7 8 -16 5 -19 -3 -3
-10 3 -16 14 -9 16 -7 24 5 36 8 9 11 16 6 16 -16 0 -23 31 -9 45 33 37 38 46
31 57 -5 7 -3 8 6 3 10 -6 12 -4 7 8 -3 9 -1 17 5 19 6 2 13 28 16 58 2 30 10
58 16 62 8 6 8 8 0 8 -8 0 -9 13 -2 45 8 37 7 50 -7 71 -13 20 -14 28 -4 40 7
9 8 14 1 14 -6 0 -16 25 -22 56 -8 40 -15 53 -21 43 -8 -13 -13 13 -12 59 1 6
-5 12 -13 12 -8 0 -14 7 -14 15 0 8 -5 15 -11 15 -5 0 -8 -4 -5 -9 3 -5 -1
-12 -9 -15 -12 -4 -13 -2 -5 13 5 11 15 22 22 24 10 4 10 8 -1 15 -7 5 -10 15
-6 22 5 9 2 10 -14 5 -17 -5 -21 -2 -21 16 0 18 -2 19 -15 9 -11 -9 -15 -9
-15 -1 0 7 -5 9 -12 5 -7 -4 -8 -3 -4 5 4 6 12 9 17 6 5 -4 7 4 5 17 -3 13 -5
27 -5 31 -1 5 -5 5 -11 2 -6 -3 -7 1 -4 9 3 9 1 16 -4 16 -6 0 -13 -8 -16 -17
-3 -11 -4 -7 -3 7 1 17 -3 24 -12 22 -12 -3 -12 -1 0 14 9 12 9 15 2 10 -9 -5
-13 0 -13 13 0 12 -6 20 -12 19 -8 -2 -12 5 -10 16 2 11 -1 15 -8 11 -6 -4
-17 1 -24 11 -9 11 -19 15 -31 10 -10 -3 -24 -1 -31 5 -19 15 -18 30 1 23 8
-4 12 -11 8 -17 -4 -7 0 -8 11 -4 10 4 21 7 24 7 4 0 -13 10 -38 22 -45 22
-70 41 -70 53 0 3 6 3 13 0 6 -4 3 1 -8 9 -11 9 -26 14 -34 11 -8 -3 -18 0
-23 7 -6 10 -8 10 -8 1 0 -7 -4 -13 -10 -13 -5 0 -7 7 -3 16 5 14 3 15 -17 4
-20 -11 -22 -10 -17 3 4 11 2 14 -9 10 -8 -3 -13 -12 -10 -20 3 -8 2 -12 -3
-8 -5 3 -21 1 -35 -4 -21 -9 -24 -8 -19 6 5 12 3 14 -7 8 -9 -5 -11 -4 -6 3 4
7 3 12 -3 12 -5 0 -12 -6 -14 -12 -4 -10 -6 -10 -6 -1 -1 7 8 17 19 23 16 9
20 8 20 -7 0 -12 3 -14 11 -6 8 8 5 17 -9 31 -16 16 -22 18 -26 6 -3 -7 -12
-11 -21 -8 -8 3 -12 10 -9 15 3 5 10 6 16 3 7 -4 8 -2 4 4 -10 17 -17 15 -48
-13z m-78 -50 c0 -8 -4 -15 -10 -15 -5 0 -7 7 -4 15 4 8 8 15 10 15 2 0 4 -7
4 -15z m60 -4 c0 -5 3 -18 6 -28 5 -15 4 -16 -5 -3 -10 13 -12 13 -22 0 -9
-13 -10 -12 -5 3 3 10 6 23 6 28 0 5 5 9 10 9 6 0 10 -4 10 -9z m37 -23 c2
-17 0 -19 -7 -8 -5 8 -6 18 -4 22 8 12 10 10 11 -14z m183 -13 c0 -2 -9 -3
-20 -2 -11 1 -20 7 -20 14 0 11 5 11 20 3 11 -6 20 -13 20 -15z m50 15 c0 -5
-2 -10 -4 -10 -3 0 -8 5 -11 10 -3 6 -1 10 4 10 6 0 11 -4 11 -10z m-158 -22
c-7 -7 -12 -8 -12 -2 0 14 12 26 19 19 2 -3 -1 -11 -7 -17z m35 -10 c-3 -7 -5
-2 -5 12 0 14 2 19 5 13 2 -7 2 -19 0 -25z m26 2 c3 -11 1 -18 -4 -14 -5 3 -9
12 -9 20 0 20 7 17 13 -6z m47 -20 c0 -5 -2 -10 -4 -10 -3 0 -8 5 -11 10 -3 6
-1 10 4 10 6 0 11 -4 11 -10z m-46 -46 c3 -8 2 -12 -4 -9 -6 3 -10 10 -10 16
0 14 7 11 14 -7z m-194 -34 c0 -5 -5 -10 -11 -10 -5 0 -7 5 -4 10 3 6 8 10 11
10 2 0 4 -4 4 -10z m34 -6 c3 -8 2 -12 -4 -9 -6 3 -10 10 -10 16 0 14 7 11 14
-7z m-2863 -27 c-10 -9 -11 -8 -5 6 3 10 9 15 12 12 3 -3 0 -11 -7 -18z m2524
-28 c-7 -11 -35 -12 -35 -1 0 4 9 8 20 9 11 1 18 -2 15 -8z m103 -14 c-3 -3
-9 2 -12 12 -6 14 -5 15 5 6 7 -7 10 -15 7 -18z m92 15 c0 -5 -5 -10 -11 -10
-5 0 -7 5 -4 10 3 6 8 10 11 10 2 0 4 -4 4 -10z m70 0 c0 -5 -4 -10 -10 -10
-5 0 -10 5 -10 10 0 6 5 10 10 10 6 0 10 -4 10 -10z m415 0 c3 -6 -1 -7 -9 -4
-18 7 -21 14 -7 14 6 0 13 -4 16 -10z m-590 -40 c-3 -4 2 -13 10 -20 8 -7 15
-17 15 -23 0 -6 -11 4 -25 23 -29 40 -30 41 -10 34 8 -4 13 -10 10 -14z m262
-8 c-5 -47 -28 -69 -40 -38 -4 10 -1 13 8 10 8 -4 15 5 20 25 8 39 16 40 12 3z
m-193 -1 c13 -14 14 -21 5 -27 -8 -4 -10 -3 -5 4 4 7 3 12 -2 12 -6 0 -12 7
-16 15 -7 20 -3 19 18 -4z m161 9 c-3 -5 -12 -10 -18 -10 -7 0 -6 4 3 10 19
12 23 12 15 0z m-258 -32 c-3 -8 -6 -5 -6 6 -1 11 2 17 5 13 3 -3 4 -12 1 -19z
m-75 -5 c-6 -3 -9 -9 -6 -15 4 -6 0 -14 -7 -19 -11 -6 -8 -9 8 -9 25 0 39 16
21 23 -8 3 -6 6 5 6 9 1 17 6 17 12 0 5 5 7 10 4 6 -3 10 -11 10 -16 0 -6 -4
-8 -9 -5 -10 6 -23 -33 -15 -46 10 -16 23 -8 19 12 -5 25 1 26 15 0 9 -17 6
-21 -25 -34 -19 -8 -35 -20 -35 -25 0 -6 -4 -11 -9 -11 -5 0 -7 9 -4 20 4 16
2 19 -10 14 -9 -3 -16 -9 -15 -12 4 -33 -14 -41 -44 -18 -22 16 -13 53 14 62
11 3 17 8 15 10 -2 3 7 18 21 34 14 16 28 27 31 23 4 -3 0 -8 -7 -10z m-782
-3 c0 -5 -5 -10 -11 -10 -5 0 -7 5 -4 10 3 6 8 10 11 10 2 0 4 -4 4 -10z m10
-30 c-9 -17 -14 -19 -25 -10 -11 9 -16 7 -24 -8 -6 -11 -7 -23 -3 -27 4 -5 1
-5 -5 -1 -7 4 -13 2 -13 -3 0 -6 -9 -11 -20 -11 -12 0 -20 -7 -20 -16 0 -9 -7
-14 -17 -12 -21 4 -20 20 4 33 10 6 20 11 23 13 2 2 -2 8 -10 13 -12 9 -12 10
3 5 9 -3 17 -1 17 4 0 5 7 7 17 3 13 -5 15 -2 11 14 -5 19 -2 21 24 18 20 -3
31 1 35 12 4 10 8 12 10 6 3 -7 -1 -21 -7 -33z m1467 34 c-3 -3 -12 -4 -19 -1
-8 3 -5 6 6 6 11 1 17 -2 13 -5z m-457 -14 c0 -5 -8 -10 -17 -10 -15 0 -16 2
-3 10 19 12 20 12 20 0z m-145 -10 c3 -5 1 -10 -4 -10 -6 0 -11 5 -11 10 0 6
2 10 4 10 3 0 8 -4 11 -10z m66 -9 c-10 -6 -8 -10 5 -15 11 -4 20 -2 22 3 6
17 32 13 32 -4 0 -8 -5 -15 -11 -15 -5 0 -7 6 -3 13 5 9 4 9 -6 0 -10 -10 -11
-15 -1 -27 10 -12 9 -17 -7 -27 -11 -7 -18 -19 -15 -28 4 -14 4 -14 -6 -1 -16
23 -14 43 5 36 23 -9 14 24 -11 38 -11 6 -22 12 -24 13 -2 2 2 9 9 18 7 9 15
13 19 10 3 -3 0 -10 -8 -14z m-61 -21 c0 -5 -2 -10 -4 -10 -3 0 -8 5 -11 10
-3 6 -1 10 4 10 6 0 11 -4 11 -10z m150 0 c0 -5 -5 -10 -11 -10 -5 0 -7 5 -4
10 3 6 8 10 11 10 2 0 4 -4 4 -10z m103 -15 c-7 -21 -12 -19 -10 4 0 11 5 18
9 15 4 -3 5 -11 1 -19z m-53 5 c0 -5 -2 -10 -4 -10 -3 0 -8 5 -11 10 -3 6 -1
10 4 10 6 0 11 -4 11 -10z m-160 -10 c-20 -13 -33 -13 -25 0 3 6 14 10 23 10
15 0 15 -2 2 -10z m120 -25 c0 -3 -6 -4 -12 -2 -7 1 -12 -3 -11 -10 2 -7 -4
-10 -12 -7 -8 4 -15 1 -15 -5 0 -6 -4 -11 -10 -11 -18 0 -10 19 11 25 12 4 18
12 15 21 -4 12 -2 12 14 4 11 -6 20 -13 20 -15z m433 4 c-4 -15 -8 -17 -14 -8
-8 14 -3 29 11 29 4 0 6 -9 3 -21z m217 11 c0 -5 -4 -10 -10 -10 -5 0 -10 5
-10 10 0 6 5 10 10 10 6 0 10 -4 10 -10z m-2800 -25 c7 -9 8 -15 2 -15 -5 0
-12 7 -16 15 -3 8 -4 15 -2 15 2 0 9 -7 16 -15z m2020 10 c0 -1 -8 -11 -18
-22 -17 -20 -18 -20 -40 -3 -12 10 -22 20 -22 22 0 2 18 4 40 4 22 1 40 0 40
-1z m-220 -37 c0 -5 -5 -8 -11 -8 -5 0 -7 6 -3 13 5 8 2 7 -9 -2 -10 -8 -21
-11 -25 -7 -4 4 2 14 12 22 16 11 21 11 28 1 4 -6 8 -15 8 -19z m-727 -4 c-4
-12 -8 -13 -14 -3 -9 15 -2 32 11 24 5 -3 6 -13 3 -21z m-99 -3 c4 -5 -3 -7
-14 -4 -23 6 -26 13 -6 13 8 0 17 -4 20 -9z m766 -17 c0 -8 -4 -12 -10 -9 -5
3 -10 13 -10 21 0 8 5 12 10 9 6 -3 10 -13 10 -21z m135 7 c-3 -6 -11 -9 -16
-5 -5 3 -17 0 -25 -7 -12 -10 -13 -9 -8 4 3 9 15 17 27 19 27 5 31 2 22 -11z
m80 9 c-3 -5 -1 -10 4 -10 6 0 11 -5 11 -11 0 -8 -5 -8 -15 1 -17 14 -20 30
-4 30 5 0 7 -4 4 -10z m70 -14 c0 -13 -3 -22 -7 -19 -15 9 -8 -7 12 -27 22
-22 40 -26 40 -9 0 5 -4 7 -10 4 -6 -4 -7 1 -3 11 4 12 3 15 -5 10 -8 -5 -10
-2 -6 8 8 21 31 -1 30 -29 -1 -25 -46 -35 -46 -11 0 9 -5 16 -11 16 -6 0 -8
-7 -5 -16 3 -9 2 -12 -5 -9 -6 4 -8 13 -5 20 3 8 -2 19 -10 25 -18 16 -18 30
1 30 8 0 15 5 15 10 0 6 3 10 8 10 4 0 7 -11 7 -24z m525 20 c0 -3 -4 -8 -10
-11 -5 -3 -10 -1 -10 4 0 6 5 11 10 11 6 0 10 -2 10 -4z m267 -28 c2 -18 0
-20 -7 -8 -8 13 -10 12 -10 -3 0 -10 -5 -15 -11 -12 -7 5 -4 14 7 26 21 23 19
24 21 -3z m-1797 8 c0 -2 -7 -7 -16 -10 -8 -3 -12 -2 -9 4 6 10 25 14 25 6z
m767 -2 c-3 -3 -12 -4 -19 -1 -8 3 -5 6 6 6 11 1 17 -2 13 -5z m190 -41 c-2
-2 -16 3 -30 10 -15 8 -24 17 -21 20 4 3 17 -1 30 -10 14 -9 23 -17 21 -20z
m-1057 7 c0 -5 -7 -7 -15 -4 -8 4 -15 8 -15 10 0 2 7 4 15 4 8 0 15 -4 15 -10z
m950 -10 c0 -5 -5 -10 -11 -10 -5 0 -7 5 -4 10 3 6 8 10 11 10 2 0 4 -4 4 -10z
m276 2 c-3 -5 4 -19 16 -32 14 -14 23 -19 26 -12 4 14 22 16 22 2 0 -5 -10
-14 -21 -21 -12 -6 -19 -7 -17 -2 6 10 -28 44 -36 36 -3 -4 -6 0 -6 9 0 8 3
18 7 21 9 10 15 9 9 -1z m686 -17 c-8 -16 -9 -16 -15 -1 -4 10 -3 15 3 11 6
-3 10 -1 10 6 0 7 3 10 6 6 3 -3 2 -13 -4 -22z m-1981 -8 c-10 -9 -11 -8 -5 6
3 10 9 15 12 12 3 -3 0 -11 -7 -18z m1326 1 c-3 -8 -6 -5 -6 6 -1 11 2 17 5
13 3 -3 4 -12 1 -19z m-532 2 c3 -5 1 -10 -4 -10 -6 0 -11 5 -11 10 0 6 2 10
4 10 3 0 8 -4 11 -10z m100 0 c19 -8 19 -9 -2 -9 -12 -1 -25 4 -28 9 -7 12 2
12 30 0z m280 -26 c9 3 11 -2 7 -16 -4 -18 -6 -18 -14 -4 -5 9 -18 16 -28 16
-22 0 -23 1 -14 25 6 14 8 13 21 -5 8 -12 21 -19 28 -16z m-178 20 c-3 -3 -12
-4 -19 -1 -8 3 -5 6 6 6 11 1 17 -2 13 -5z m83 2 c0 -2 -7 -7 -16 -10 -8 -3
-12 -2 -9 4 6 10 25 14 25 6z m206 -22 c28 -29 30 -36 9 -28 -8 4 -15 10 -15
16 0 5 -4 6 -10 3 -5 -3 -10 2 -10 11 0 23 -9 13 -15 -16 -5 -26 -15 -40 -15
-21 0 7 -5 9 -12 5 -10 -6 -10 -5 -1 8 7 8 9 19 5 23 -4 5 -2 5 4 2 7 -4 14 0
18 8 8 21 15 19 42 -11z m744 12 c0 -3 -4 -8 -10 -11 -5 -3 -10 -1 -10 4 0 6
5 11 10 11 6 0 10 -2 10 -4z m-1200 -14 c0 -11 -26 -40 -60 -67 l-25 -20 25
29 c14 16 32 37 40 47 18 21 20 22 20 11z m-50 -12 c0 -5 -5 -10 -11 -10 -5 0
-7 5 -4 10 3 6 8 10 11 10 2 0 4 -4 4 -10z m373 -26 c-7 -18 -25 -14 -31 7 -3
11 -2 11 7 -1 10 -14 16 -7 12 13 -1 5 3 6 8 2 6 -3 8 -12 4 -21z m299 -3 c2
-17 1 -28 -4 -25 -8 5 -12 54 -4 54 2 0 6 -13 8 -29z m-65 4 c5 -4 3 -5 -4 -2
-6 4 -13 3 -15 -2 -1 -5 -9 -3 -16 5 -11 12 -9 13 7 11 11 -2 24 -7 28 -12z
m-347 -30 c0 -5 -5 -3 -10 5 -5 8 -10 20 -10 25 0 6 5 3 10 -5 5 -8 10 -19 10
-25z m318 -17 c-10 -6 -9 -8 2 -8 13 0 13 -1 0 -10 -10 -7 -12 -12 -4 -17 16
-11 37 -54 30 -61 -3 -3 -6 0 -6 6 0 17 -26 15 -45 -4 -13 -14 -14 -19 -3 -25
9 -6 9 -9 1 -9 -6 0 -21 14 -33 30 l-21 30 22 0 c17 0 19 3 10 13 -8 10 -7 19
5 33 15 18 15 18 9 -3 -4 -13 -2 -23 3 -23 5 0 9 6 9 13 0 6 3 23 7 35 7 21 6
23 -12 13 -21 -11 -32 -6 -32 16 0 8 5 11 10 8 6 -4 7 -11 4 -17 -5 -7 -2 -8
5 -4 7 5 10 15 6 24 -4 11 3 8 20 -8 19 -17 22 -26 13 -32z m-613 32 c3 -5 1
-10 -4 -10 -6 0 -11 5 -11 10 0 6 2 10 4 10 3 0 8 -4 11 -10z m70 -9 c-3 -6
-11 -11 -16 -11 -5 0 -4 6 3 14 14 16 24 13 13 -3z m-150 -1 c-3 -5 -14 -10
-23 -9 -14 0 -13 2 3 9 27 11 27 11 20 0z m405 -6 c0 -8 -5 -12 -10 -9 -6 4
-8 11 -5 16 9 14 15 11 15 -7z m56 -9 c2 -15 -42 -33 -53 -21 -4 3 3 6 15 6
20 0 27 11 22 35 -1 6 2 6 6 2 4 -4 9 -14 10 -22z m-329 -25 c10 -15 10 -21 0
-26 -6 -4 -9 -3 -4 1 4 5 0 17 -10 27 -9 10 -12 18 -7 18 5 0 15 -9 21 -20z
m253 9 c12 -9 12 -10 -4 -5 -11 4 -24 0 -33 -11 -13 -16 -13 -16 -3 5 12 25
18 26 40 11z m125 -7 c-3 -3 -11 0 -18 7 -9 10 -8 11 6 5 10 -3 15 -9 12 -12z
m112 3 c0 -8 -4 -12 -9 -9 -5 3 -6 10 -3 15 9 13 12 11 12 -6z m145 -9 c15
-22 7 -25 -12 -6 -12 12 -26 18 -32 14 -7 -4 -8 -3 -4 4 7 12 37 5 48 -12z
m-692 -37 c0 -26 -16 -32 -34 -13 -9 8 -16 10 -16 4 0 -7 -5 -6 -14 2 -10 10
-11 17 -2 30 6 10 15 18 20 18 6 0 5 -5 -2 -12 -15 -15 -16 -32 -1 -23 6 4 17
-1 24 -11 13 -18 14 -18 12 4 -1 12 -4 22 -7 22 -4 0 -7 7 -7 16 0 14 2 14 14
-2 7 -10 13 -26 13 -35z m25 32 c-3 -5 -1 -12 5 -16 5 -3 10 -11 10 -16 0 -6
-7 -3 -16 5 -13 14 -12 36 2 36 3 0 3 -4 -1 -9z m739 -4 c11 -10 11 -15 0 -25
-7 -7 -19 -12 -26 -12 -8 0 -5 5 5 11 14 8 16 14 6 25 -14 17 -2 19 15 1z
m-380 -8 c3 -3 -6 -6 -20 -7 -14 -1 -23 2 -20 7 6 9 31 9 40 0z m-546 -13 c-7
-8 -15 -12 -17 -11 -5 6 10 25 20 25 5 0 4 -6 -3 -14z m680 -22 c-11 -11 -18
-13 -23 -5 -4 7 -1 10 7 9 7 -2 12 5 11 16 -1 13 2 15 10 7 8 -8 7 -15 -5 -27z
m152 26 c-11 -7 -11 -10 -2 -10 7 0 10 -5 7 -10 -8 -13 -25 -3 -25 16 0 8 8
14 18 14 14 0 15 -2 2 -10z m-900 -9 c0 -5 -9 -11 -20 -14 -22 -6 -28 8 -7 16
19 8 27 8 27 -2z m603 -8 c-7 -2 -14 -14 -14 -26 -1 -17 -2 -18 -6 -4 -2 9
-12 17 -21 18 -10 1 -7 4 8 9 28 9 52 11 33 3z m332 -13 c-10 -11 -13 -20 -7
-20 6 0 14 5 18 11 3 6 20 9 36 7 21 -3 27 -1 24 8 -3 7 0 11 7 8 7 -2 13 -22
15 -44 2 -33 -1 -40 -15 -39 -11 0 -13 3 -5 6 6 2 12 12 12 21 0 15 -2 15 -10
2 -8 -13 -10 -12 -10 3 0 10 -4 15 -10 12 -5 -3 -10 -2 -10 4 0 11 -18 9 -45
-6 -18 -10 -21 -9 -22 8 -1 10 3 19 8 19 6 0 7 5 4 10 -3 6 2 10 11 10 16 0
16 -1 -1 -20z m-975 -12 c0 -9 4 -8 10 2 5 8 10 12 11 8 1 -5 3 -11 4 -15 2
-5 6 -18 10 -30 4 -12 14 -24 24 -26 9 -2 -6 -3 -34 -2 -45 3 -52 0 -82 -32
-18 -19 -33 -29 -33 -22 0 6 8 18 18 25 15 12 15 15 2 25 -12 9 -11 10 8 6 17
-4 22 -2 18 8 -2 7 4 15 15 18 10 3 19 1 19 -4 0 -5 5 -9 11 -9 21 0 2 25 -20
26 -12 1 -25 5 -29 9 -4 5 1 5 12 1 14 -5 17 -2 12 9 -3 9 0 15 9 15 8 0 15
-6 15 -12z m220 -2 c0 -3 -4 -8 -10 -11 -5 -3 -10 -1 -10 4 0 6 5 11 10 11 6
0 10 -2 10 -4z m598 -17 c10 -14 10 -18 -1 -22 -10 -4 -14 2 -14 19 0 14 0 24
1 22 1 -2 7 -10 14 -19z m-748 7 c0 -11 -19 -15 -25 -6 -3 5 1 10 9 10 9 0 16
-2 16 -4z m40 -6 c0 -5 -2 -10 -4 -10 -3 0 -8 5 -11 10 -3 6 -1 10 4 10 6 0
11 -4 11 -10z m149 -7 c-6 -7 -18 -13 -26 -13 -11 0 -11 3 -1 13 7 8 18 14 25
14 9 0 10 -4 2 -14z m656 -12 c-6 -5 -25 10 -25 20 0 5 6 4 14 -3 8 -7 12 -15
11 -17z m-137 -6 c-3 -3 -9 2 -12 12 -6 14 -5 15 5 6 7 -7 10 -15 7 -18z m232
3 c-25 -9 -36 -5 -26 10 3 6 16 8 28 4 l22 -5 -24 -9z m-457 5 c-7 -2 -19 -2
-25 0 -7 3 -2 5 12 5 14 0 19 -2 13 -5z m-1013 -12 c0 -5 -7 -12 -16 -15 -14
-5 -15 -4 -4 9 14 17 20 19 20 6z m1435 -19 c-3 -3 -11 0 -18 7 -9 10 -8 11 6
5 10 -3 15 -9 12 -12z m-150 -11 c2 -4 -9 -5 -25 -3 -17 2 -28 8 -25 12 6 9
43 2 50 -9z m195 9 c13 -8 13 -10 -2 -10 -9 0 -20 5 -23 10 -8 13 5 13 25 0z
m-790 -10 c0 -5 -5 -10 -11 -10 -5 0 -7 5 -4 10 3 6 8 10 11 10 2 0 4 -4 4
-10z m-211 -9 c8 -5 9 -11 3 -15 -5 -3 -15 1 -22 9 -14 16 -3 20 19 6z m246
-1 c-3 -5 -12 -10 -18 -10 -7 0 -6 4 3 10 19 12 23 12 15 0z m750 -10 c-3 -5
-11 -10 -16 -10 -6 0 -7 5 -4 10 3 6 11 10 16 10 6 0 7 -4 4 -10z m118 -5 c-3
-9 -8 -14 -10 -11 -3 3 -2 9 2 15 9 16 15 13 8 -4z m-73 -5 c13 -8 13 -10 -2
-10 -9 0 -20 5 -23 10 -8 13 5 13 25 0z m-550 -10 c0 -5 -2 -10 -4 -10 -3 0
-8 5 -11 10 -3 6 -1 10 4 10 6 0 11 -4 11 -10z m-610 -21 c0 -6 -4 -7 -10 -4
-5 3 -10 11 -10 16 0 6 5 7 10 4 6 -3 10 -11 10 -16z m1155 -8 c-3 -6 -11 -11
-16 -11 -5 0 -4 6 3 14 14 16 24 13 13 -3z m-261 -1 c14 -5 26 -15 26 -22 0
-8 -3 -9 -8 -3 -4 6 -18 16 -32 22 -31 14 -21 17 14 3z m-250 -12 c-3 -4 -9
-8 -15 -8 -5 0 -9 4 -9 8 0 5 7 9 15 9 8 0 12 -4 9 -9z m-497 -110 c-3 -8 -6
-5 -6 6 -1 11 2 17 5 13 3 -3 4 -12 1 -19z m1460 -50 c-3 -8 -6 -5 -6 6 -1 11
2 17 5 13 3 -3 4 -12 1 -19z m-20 -10 c-3 -8 -6 -5 -6 6 -1 11 2 17 5 13 3 -3
4 -12 1 -19z m143 -18 c0 -5 -2 -10 -4 -10 -3 0 -8 5 -11 10 -3 6 -1 10 4 10
6 0 11 -4 11 -10z m-1440 -30 c0 -11 -7 -20 -15 -20 -8 0 -15 8 -15 18 0 14 2
15 10 2 8 -13 10 -12 10 3 0 9 2 17 5 17 3 0 5 -9 5 -20z m87 -2 c-3 -8 -6 -5
-6 6 -1 11 2 17 5 13 3 -3 4 -12 1 -19z m1373 13 c0 -5 -10 -11 -22 -14 -22
-6 -22 -6 -4 8 23 17 26 18 26 6z m-2010 -21 c0 -19 -36 -47 -48 -36 -3 3 0 6
7 6 7 0 9 5 5 12 -4 7 -3 8 4 4 11 -6 16 6 13 27 0 4 4 7 9 7 6 0 10 -9 10
-20z m600 -6 c0 -2 -7 -4 -15 -4 -8 0 -15 4 -15 10 0 5 7 7 15 4 8 -4 15 -8
15 -10z m1345 -4 c-8 -14 6 -40 19 -33 7 4 6 1 -1 -7 -7 -8 -15 -11 -18 -8
-10 10 -14 68 -4 62 5 -3 7 -9 4 -14z m-1431 -5 c3 -8 1 -15 -4 -15 -6 0 -10
7 -10 15 0 8 2 15 4 15 2 0 6 -7 10 -15z m186 -19 c0 -2 -7 -7 -16 -10 -8 -3
-12 -2 -9 4 6 10 25 14 25 6z m-110 -10 c0 -2 -7 -7 -16 -10 -8 -3 -12 -2 -9
4 6 10 25 14 25 6z m-662 -30 c-10 -7 -15 -16 -11 -19 3 -4 4 -7 1 -7 -3 0
-12 8 -19 18 -7 9 -10 14 -5 10 5 -4 15 0 23 8 9 8 18 12 22 9 3 -4 -2 -12
-11 -19z m466 9 c-4 -8 -11 -15 -16 -15 -6 0 -5 6 2 15 7 8 14 15 16 15 2 0 1
-7 -2 -15z m1616 1 c0 -3 -4 -8 -10 -11 -5 -3 -10 -1 -10 4 0 6 5 11 10 11 6
0 10 -2 10 -4z m14 -34 c3 -5 -1 -9 -9 -9 -8 0 -15 4 -15 9 0 4 4 8 9 8 6 0
12 -4 15 -8z m-2140 -17 c-4 -8 -10 -15 -15 -15 -4 0 -6 7 -3 15 4 8 10 15 15
15 4 0 6 -7 3 -15z m486 6 c0 -5 -9 -11 -20 -14 -11 -3 -20 -1 -20 3 0 5 8 11
18 13 9 3 18 5 20 6 1 0 2 -3 2 -8z m1810 -27 c0 -2 -7 -4 -15 -4 -8 0 -15 4
-15 10 0 5 7 7 15 4 8 -4 15 -8 15 -10z m-1245 -12 c-3 -3 -11 0 -18 7 -9 10
-8 11 6 5 10 -3 15 -9 12 -12z m-622 -7 c-3 -9 -8 -14 -10 -11 -3 3 -2 9 2 15
9 16 15 13 8 -4z m-493 -19 c0 -18 -27 -29 -36 -14 -4 7 -3 8 5 4 6 -4 14 0
17 8 8 20 14 21 14 2z m2265 -36 c-3 -6 -12 -10 -18 -10 -9 0 -8 3 1 8 7 5 10
17 7 28 -6 17 -6 18 5 1 6 -9 8 -22 5 -27z m-1795 6 c0 -2 -7 -6 -15 -10 -8
-3 -15 -1 -15 4 0 6 7 10 15 10 8 0 15 -2 15 -4z m1871 -13 c12 -16 12 -17 -2
-6 -9 7 -20 9 -24 5 -5 -4 -5 -1 -1 6 9 16 11 15 27 -5z m153 -12 c15 -17 16
-19 1 -25 -11 -4 -15 -2 -12 6 2 7 -3 18 -12 25 -9 7 -11 13 -5 13 6 0 19 -8
28 -19z m-1544 -16 c0 -12 -19 -12 -23 0 -4 9 -1 12 9 8 7 -3 14 -7 14 -8z
m80 11 c0 -2 -7 -7 -16 -10 -8 -3 -12 -2 -9 4 6 10 25 14 25 6z m1277 -22 c-3
-3 -12 -4 -19 -1 -8 3 -5 6 6 6 11 1 17 -2 13 -5z m160 -17 c0 -8 -6 -14 -14
-14 -9 0 -10 4 -2 14 6 7 12 13 14 13 1 0 2 -6 2 -13z m34 -14 c-12 -20 -14
-14 -5 12 4 9 9 14 11 11 3 -2 0 -13 -6 -23z m-2101 -7 c-14 -12 -27 -18 -29
-13 -4 11 26 37 43 37 6 0 -1 -11 -14 -24z m1969 21 c-2 -1 -11 -8 -21 -15
-12 -10 -18 -10 -24 -1 -4 7 -3 9 4 5 6 -3 13 -2 17 4 3 5 11 10 17 10 6 0 9
-1 7 -3z m56 -57 c-3 -5 -12 -10 -18 -10 -7 0 -6 4 3 10 19 12 23 12 15 0z
m-1626 -23 c-2 -1 -15 -11 -29 -22 l-25 -20 19 23 c11 12 24 22 29 22 6 0 8
-1 6 -3z m-488 -26 c7 11 9 10 9 -3 0 -10 -7 -18 -15 -18 -8 0 -15 8 -14 18 0
12 2 13 6 3 5 -11 7 -11 14 0z m464 -21 c-3 -5 -12 -10 -18 -10 -7 0 -6 4 3
10 19 12 23 12 15 0z m3345 -4 c0 -3 -4 -8 -10 -11 -5 -3 -10 -1 -10 4 0 6 5
11 10 11 6 0 10 -2 10 -4z m187 -12 c-3 -3 -12 -4 -19 -1 -8 3 -5 6 6 6 11 1
17 -2 13 -5z m-2057 -28 c0 -2 -7 -7 -16 -10 -8 -3 -12 -2 -9 4 6 10 25 14 25
6z m2275 -6 c3 -5 1 -10 -4 -10 -6 0 -11 5 -11 10 0 6 2 10 4 10 3 0 8 -4 11
-10z m-4275 -25 c-14 -17 -30 -20 -30 -4 0 5 5 7 10 4 6 -3 13 1 16 10 4 9 9
14 12 11 3 -3 -1 -12 -8 -21z m870 -45 c0 -5 -5 -10 -11 -10 -5 0 -7 5 -4 10
3 6 8 10 11 10 2 0 4 -4 4 -10z m-417 -21 c-4 -15 -8 -17 -14 -8 -8 14 -3 29
11 29 4 0 6 -9 3 -21z m1952 -39 c3 -5 1 -10 -4 -10 -6 0 -11 5 -11 10 0 6 2
10 4 10 3 0 8 -4 11 -10z m-2015 -50 c0 -5 -2 -10 -4 -10 -3 0 -8 5 -11 10 -3
6 -1 10 4 10 6 0 11 -4 11 -10z m2910 -16 c0 -8 -5 -12 -10 -9 -6 4 -8 11 -5
16 9 14 15 11 15 -7z m150 8 c0 -15 -24 -32 -44 -31 -15 0 -17 2 -6 6 8 3 19
12 23 19 9 15 27 19 27 6z m-2600 -6 c0 -3 -4 -8 -10 -11 -5 -3 -10 -1 -10 4
0 6 5 11 10 11 6 0 10 -2 10 -4z m2680 -6 c0 -5 8 -10 18 -11 10 0 12 -3 5 -6
-20 -7 -15 -19 7 -20 11 -1 18 2 15 7 -3 5 3 8 14 7 15 -1 17 -5 11 -17 -7
-13 -4 -16 12 -16 12 1 24 -8 29 -21 7 -19 5 -23 -11 -23 -10 0 -22 -4 -25
-10 -10 -17 -38 -12 -31 6 3 8 2 13 -3 9 -5 -3 -11 1 -14 7 -3 10 -9 8 -23 -4
-11 -11 -13 -18 -6 -18 7 0 12 5 12 11 0 5 4 7 10 4 6 -4 5 -13 -2 -25 -8 -12
-15 -15 -19 -8 -4 6 -12 7 -18 4 -8 -5 -8 0 -1 18 6 17 6 26 0 26 -6 0 -10 -3
-10 -8 0 -4 -10 -13 -22 -21 -23 -14 -23 -14 -4 8 17 19 18 21 2 21 -10 0 -24
7 -32 15 -17 16 -7 20 15 6 16 -10 63 7 56 20 -3 4 -1 11 5 14 8 5 7 11 -1 21
-8 10 -8 14 0 14 6 0 11 -4 11 -10z m-55 -33 c0 -20 -3 -22 -22 -12 -21 9 -21
11 -6 23 24 17 28 15 28 -11z m25 -3 c0 -8 -5 -12 -10 -9 -6 4 -8 11 -5 16 9
14 15 11 15 -7z m174 -9 c-7 -18 7 -20 26 -2 12 10 12 9 2 -4 -10 -14 -9 -17
9 -22 14 -4 18 -10 13 -18 -6 -10 -9 -10 -12 -1 -2 7 -13 12 -25 12 -19 -1
-20 -2 -6 -13 10 -8 13 -20 8 -37 -4 -14 -7 -20 -8 -14 -1 14 -29 12 -58 -4
-15 -8 -23 -9 -23 -2 0 5 7 10 15 10 8 0 15 5 15 11 0 5 -5 7 -12 3 -7 -4 -8
-3 -4 4 4 6 20 10 36 8 27 -3 28 -2 16 18 -14 23 -15 35 -3 54 11 17 18 15 11
-3z m157 -12 c13 -16 12 -17 -3 -4 -14 11 -18 11 -18 1 0 -8 -3 -11 -6 -7 -5
5 3 27 10 27 2 0 10 -8 17 -17z m-847 -9 c6 -15 4 -15 -11 -3 -10 7 -20 15
-22 16 -2 2 3 3 11 3 9 0 19 -7 22 -16z m-2640 -3 c3 -5 -1 -11 -9 -15 -9 -3
-15 0 -15 9 0 16 16 20 24 6z m2111 -1 c3 -5 1 -10 -4 -10 -6 0 -11 5 -11 10
0 6 2 10 4 10 3 0 8 -4 11 -10z m960 0 c3 -5 1 -10 -4 -10 -6 0 -11 5 -11 10
0 6 2 10 4 10 3 0 8 -4 11 -10z m368 -5 c-3 -9 -8 -14 -10 -11 -3 3 -2 9 2 15
9 16 15 13 8 -4z m-2538 -15 c3 -6 -1 -7 -9 -4 -18 7 -21 14 -7 14 6 0 13 -4
16 -10z m2578 -10 c-3 -12 -8 -19 -11 -16 -5 6 5 36 12 36 2 0 2 -9 -1 -20z
m-1973 -14 c0 -2 -7 -9 -15 -16 -13 -11 -14 -10 -9 4 5 14 24 23 24 12z m1730
-26 c0 -5 -7 -7 -15 -4 -8 4 -15 8 -15 10 0 2 7 4 15 4 8 0 15 -4 15 -10z
m140 0 c0 -5 -5 -10 -11 -10 -5 0 -7 5 -4 10 3 6 8 10 11 10 2 0 4 -4 4 -10z
m-45 -28 c-6 -7 -34 11 -29 19 3 5 11 3 19 -4 7 -6 12 -13 10 -15z m169 19 c3
-4 -6 -6 -19 -3 -14 2 -25 6 -25 8 0 8 39 4 44 -5z m-3567 -33 c-3 -8 -6 -5
-6 6 -1 11 2 17 5 13 3 -3 4 -12 1 -19z m4712 -7 c7 -5 9 -11 5 -14 -5 -3 -15
1 -22 9 -14 16 -5 18 17 5z m154 2 c-7 -2 -13 -11 -13 -19 0 -8 -4 -14 -10
-14 -12 0 -9 22 5 32 6 4 15 7 20 7 6 0 4 -3 -2 -6z m-1396 -9 c-3 -3 -12 -4
-19 -1 -8 3 -5 6 6 6 11 1 17 -2 13 -5z m1547 -26 c-3 -4 -9 -8 -15 -8 -5 0
-9 4 -9 8 0 5 7 9 15 9 8 0 12 -4 9 -9z m-1474 -12 c0 -2 -7 -7 -16 -10 -8 -3
-12 -2 -9 4 6 10 25 14 25 6z m37 -2 c-3 -3 -12 -4 -19 -1 -8 3 -5 6 6 6 11 1
17 -2 13 -5z m56 -9 c4 -8 2 -17 -4 -21 -6 -4 -5 -11 3 -21 11 -14 9 -14 -19
0 -20 11 -34 13 -38 7 -3 -6 -14 -10 -23 -10 -13 1 -11 5 8 16 24 14 24 15 2
11 -13 -3 -20 -1 -16 5 3 5 16 7 29 4 15 -4 25 -1 29 9 7 19 22 19 29 0z
m-2703 -5 c0 -5 -2 -10 -4 -10 -3 0 -8 5 -11 10 -3 6 -1 10 4 10 6 0 11 -4 11
-10z m-481 -62 c-1 -18 -2 -19 -6 -5 -2 9 -9 14 -15 11 -7 -4 -8 -2 -4 4 12
20 26 13 25 -10z m801 12 c0 -5 -2 -10 -4 -10 -3 0 -8 5 -11 10 -3 6 -1 10 4
10 6 0 11 -4 11 -10z m340 -21 c0 -5 -7 -9 -15 -9 -9 0 -12 -6 -9 -15 4 -10 0
-15 -16 -15 -11 0 -18 -4 -15 -10 3 -5 1 -10 -4 -10 -17 0 -13 20 5 27 8 3 13
12 10 19 -3 8 -2 13 2 13 21 -3 32 2 26 13 -4 7 -3 8 4 4 7 -4 12 -11 12 -17z
m3920 1 c0 -5 -2 -10 -4 -10 -3 0 -8 5 -11 10 -3 6 -1 10 4 10 6 0 11 -4 11
-10z m-3985 -18 c-3 -3 -11 0 -18 7 -9 10 -8 11 6 5 10 -3 15 -9 12 -12z m82
-4 c-3 -8 -6 -5 -6 6 -1 11 2 17 5 13 3 -3 4 -12 1 -19z m-361 0 c4 -6 3 -8
-4 -4 -5 3 -13 0 -15 -6 -3 -8 -6 -6 -6 5 -1 19 14 23 25 5z m4074 -12 c0 -3
-4 -8 -10 -11 -5 -3 -10 -1 -10 4 0 6 5 11 10 11 6 0 10 -2 10 -4z m-4050 -16
c0 -5 -2 -10 -4 -10 -3 0 -8 5 -11 10 -3 6 -1 10 4 10 6 0 11 -4 11 -10z m354
-14 c3 -11 3 -22 1 -25 -3 -2 -5 2 -5 10 0 12 -2 11 -11 -1 -9 -13 -10 -12 -5
3 4 14 1 16 -19 11 -15 -4 -25 -2 -25 5 0 6 7 8 17 4 10 -4 14 -2 9 5 -4 7 1
10 13 9 11 0 22 -10 25 -21z m46 8 c0 -2 -9 -4 -21 -4 -11 0 -18 4 -14 10 5 8
35 3 35 -6z m3500 1 c10 -12 9 -15 -6 -16 -12 0 -14 -3 -6 -6 8 -3 22 4 33 16
22 23 40 28 37 9 -2 -7 4 -11 12 -9 37 9 90 8 90 -1 0 -7 4 -7 13 -1 13 10 65
10 93 -1 16 -6 15 -8 -1 -26 -9 -10 -14 -24 -9 -31 4 -8 3 -10 -4 -5 -7 4 -9
18 -6 32 4 14 2 24 -5 24 -6 0 -11 -7 -11 -15 0 -9 -8 -18 -17 -22 -10 -3 -27
-13 -38 -22 -18 -14 -18 -14 -7 0 9 12 9 20 -3 35 -13 18 -14 17 -15 -16 -2
-36 -4 -34 -14 13 -6 25 -8 26 -22 12 -18 -18 -38 -20 -28 -3 5 8 0 9 -17 4
-54 -17 -76 -18 -92 -2 -20 20 -31 21 -23 1 8 -22 -11 -19 -23 4 -14 25 -5 31
33 25 24 -4 27 -3 16 5 -8 6 -10 11 -4 11 6 0 17 -7 24 -15z m-90 1 c0 -3 -4
-8 -10 -11 -5 -3 -10 -1 -10 4 0 6 5 11 10 11 6 0 10 -2 10 -4z m-60 -20 c-7
-7 -14 -6 -21 1 -9 9 -7 12 9 10 14 -1 18 -5 12 -11z m-3530 -17 c0 -5 -4 -9
-10 -9 -5 0 -10 7 -10 16 0 8 5 12 10 9 6 -3 10 -10 10 -16z m447 15 c-3 -3
-12 -4 -19 -1 -8 3 -5 6 6 6 11 1 17 -2 13 -5z m3973 -4 c0 -5 -5 -10 -11 -10
-5 0 -7 5 -4 10 3 6 8 10 11 10 2 0 4 -4 4 -10z m-425 -22 c6 -4 2 -8 -7 -8
-10 0 -18 7 -18 17 0 9 3 12 8 7 4 -5 12 -12 17 -16z m495 18 c0 -2 -7 -7 -16
-10 -8 -3 -12 -2 -9 4 6 10 25 14 25 6z m-6740 -10 c0 -2 -8 -10 -17 -17 -16
-13 -17 -12 -4 4 13 16 21 21 21 13z m5756 -23 c-10 -10 -19 5 -10 18 6 11 8
11 12 0 2 -7 1 -15 -2 -18z m1061 21 c-3 -3 -12 -4 -19 -1 -8 3 -5 6 6 6 11 1
17 -2 13 -5z m49 -6 c5 -8 2 -9 -9 -5 -10 4 -17 1 -17 -5 0 -6 -3 -9 -6 -5 -7
7 4 27 16 27 5 0 12 -5 16 -12z m-4106 -35 c0 -32 -5 -28 -14 10 -4 19 -3 26
4 22 5 -3 10 -18 10 -32z m60 28 c0 -5 -9 -11 -20 -14 -11 -3 -20 -1 -20 3 0
5 8 11 18 13 9 3 18 5 20 6 1 0 2 -3 2 -8z m109 -8 c-17 -21 -31 -33 -42 -33
-8 0 44 49 52 50 2 0 -3 -8 -10 -17z m-365 1 c20 -8 21 -21 1 -21 -8 0 -12 4
-9 8 2 4 -2 10 -8 12 -7 3 -10 6 -6 6 3 1 13 -2 22 -5z m173 -25 c-2 -10 -6
-21 -10 -24 -4 -3 -5 -2 -3 1 3 3 1 17 -4 30 -7 18 -6 22 5 18 8 -3 13 -14 12
-25z m139 15 c-10 -10 -14 -25 -11 -42 5 -26 5 -26 -5 -4 -11 25 2 62 21 62 6
0 3 -7 -5 -16z m4181 10 c-3 -3 -12 -4 -19 -1 -8 3 -5 6 6 6 11 1 17 -2 13 -5z
m-4356 -32 c-7 -2 -18 1 -23 6 -8 8 -4 9 13 5 13 -4 18 -8 10 -11z m3573 3
c-4 -8 -11 -12 -16 -9 -6 4 -5 10 3 15 19 12 19 11 13 -6z m130 -7 c-3 -4 -11
-5 -19 -1 -21 7 -19 12 4 10 11 0 18 -5 15 -9z m291 0 c4 4 2 -3 -6 -15 -7
-12 -18 -19 -23 -16 -6 4 -5 8 2 11 10 3 10 7 0 20 -11 15 -11 15 3 5 9 -7 19
-9 24 -5z m732 6 c-3 -3 -12 -4 -19 -1 -8 3 -5 6 6 6 11 1 17 -2 13 -5z
m-5187 -14 c8 -5 11 -10 5 -10 -5 0 -17 5 -25 10 -8 5 -10 10 -5 10 6 0 17 -5
25 -10z m200 0 c0 -5 -5 -10 -11 -10 -5 0 -7 5 -4 10 3 6 8 10 11 10 2 0 4 -4
4 -10z m156 -34 c1 -15 -2 -26 -7 -24 -6 2 -10 7 -9 11 0 4 -6 15 -15 23 -22
22 -19 35 6 25 14 -5 23 -18 25 -35z m-195 17 c13 -16 12 -17 -3 -4 -17 13
-22 21 -14 21 2 0 10 -8 17 -17z m534 -2 c-3 -6 -11 -11 -16 -11 -5 0 -4 6 3
14 14 16 24 13 13 -3z m1885 -5 c0 -2 -6 -9 -14 -15 -11 -9 -16 -9 -22 0 -4 7
-3 9 4 5 6 -3 13 -2 17 4 6 10 15 14 15 6z m2020 -11 c-9 -10 -9 -15 -1 -15 6
0 11 -4 11 -10 0 -5 -6 -10 -14 -10 -8 0 -13 6 -12 13 2 15 15 37 23 37 3 0 0
-7 -7 -15z m-3930 -14 c0 -4 -5 -12 -12 -19 -9 -9 -8 -12 6 -12 15 0 17 -6 14
-31 -3 -22 0 -33 13 -40 11 -5 16 -16 13 -24 -4 -8 -1 -15 7 -15 7 0 10 -2 7
-5 -8 -8 -39 6 -33 15 3 5 0 12 -6 16 -8 4 -9 3 -5 -4 4 -7 2 -12 -3 -12 -6 0
-11 11 -11 25 0 14 -6 25 -12 26 -10 0 -10 2 0 6 6 2 12 12 11 21 0 11 -2 12
-6 5 -2 -7 -12 -13 -21 -13 -13 0 -14 2 -4 9 7 4 14 22 14 39 1 21 5 29 14 25
8 -3 14 -8 14 -12z m1750 15 c0 -2 -7 -6 -15 -10 -8 -3 -15 -1 -15 4 0 6 7 10
15 10 8 0 15 -2 15 -4z m226 -7 c3 -6 1 -16 -6 -22 -10 -9 -11 -9 -5 2 4 8 2
17 -6 22 -9 6 -10 9 -2 9 6 0 15 -5 19 -11z m1324 1 c0 -5 -5 -10 -11 -10 -5
0 -7 5 -4 10 3 6 8 10 11 10 2 0 4 -4 4 -10z m587 -16 c-3 -3 -12 -4 -19 -1
-8 3 -5 6 6 6 11 1 17 -2 13 -5z m-4197 -26 c0 -5 5 -6 11 -2 8 4 8 1 2 -12
-7 -17 -9 -49 -3 -64 2 -6 9 -46 13 -85 2 -16 0 -36 -6 -42 -6 -9 -5 -13 4
-13 11 0 11 -2 -1 -10 -10 -6 -11 -10 -2 -10 6 0 12 -5 12 -11 0 -5 -5 -7 -11
-3 -7 4 -3 -7 7 -25 16 -28 17 -33 4 -41 -8 -5 -19 -9 -25 -9 -5 0 -4 3 3 6 6
2 12 9 12 14 0 6 -4 8 -9 4 -6 -3 -9 3 -9 12 2 28 -11 73 -22 73 -6 0 -10 -7
-10 -15 0 -8 6 -15 13 -15 9 0 8 -3 -2 -9 -7 -5 -10 -14 -7 -20 4 -6 3 -11 -3
-11 -6 0 -9 17 -8 38 2 28 6 37 19 36 26 -2 11 67 -21 94 -14 11 -13 12 6 3
16 -8 24 -8 29 1 4 7 3 8 -5 4 -6 -4 -14 0 -17 8 -3 9 -14 16 -23 16 -9 1 -1
7 17 15 17 8 32 17 32 20 0 3 -5 3 -10 0 -7 -4 -9 5 -5 27 l5 33 -19 -34 c-18
-34 -18 -34 -18 -8 0 15 3 24 8 21 5 -3 9 4 9 15 0 14 5 19 15 15 8 -4 15 -10
15 -16z m1446 2 c0 -11 -4 -20 -8 -20 -10 0 -11 24 -1 33 9 9 9 10 9 -13z
m-2939 -22 c-3 -8 -6 -5 -6 6 -1 11 2 17 5 13 3 -3 4 -12 1 -19z m958 3 c3 -5
2 -12 -3 -15 -5 -3 -9 1 -9 9 0 17 3 19 12 6z m1515 -31 c0 -11 -7 -20 -15
-20 -13 0 -13 3 -3 20 7 11 14 20 15 20 2 0 3 -9 3 -20z m903 13 c-7 -2 -21
-2 -30 0 -10 3 -4 5 12 5 17 0 24 -2 18 -5z m-939 -17 c-3 -8 -1 -17 5 -21 15
-8 53 4 46 15 -3 5 -2 11 3 14 4 2 9 -7 10 -20 1 -14 -2 -22 -8 -19 -5 3 -19
1 -30 -5 -16 -9 -22 -8 -26 5 -3 8 -10 12 -15 9 -13 -8 -11 10 3 24 16 16 19
15 12 -2z m-1331 -46 c3 -11 1 -18 -4 -14 -5 3 -9 12 -9 20 0 20 7 17 13 -6z
m1151 8 c-3 -4 -9 -8 -15 -8 -5 0 -9 4 -9 8 0 5 7 9 15 9 8 0 12 -4 9 -9z
m-1790 -14 c3 -8 2 -12 -4 -9 -6 3 -10 10 -10 16 0 14 7 11 14 -7z m1596 -15
c0 -6 -4 -7 -10 -4 -5 3 -10 11 -10 16 0 6 5 7 10 4 6 -3 10 -11 10 -16z
m-210 -21 c0 -5 -6 -6 -12 -3 -7 4 -5 0 5 -8 10 -8 20 -28 23 -43 2 -16 9 -41
15 -56 6 -15 9 -34 6 -43 -4 -8 -2 -17 3 -20 6 -4 10 -11 10 -16 0 -6 -4 -7
-10 -4 -5 3 -10 1 -10 -4 0 -17 -17 -13 -24 5 -3 8 -2 12 4 9 6 -3 10 4 10 17
0 16 -3 19 -9 10 -6 -11 -10 -10 -16 5 -5 10 -7 21 -7 26 1 4 -2 7 -7 7 -8 0
-17 20 -26 58 -2 6 3 12 11 12 7 0 11 -6 8 -14 -3 -8 0 -17 7 -22 7 -4 10 -3
5 4 -3 6 -2 13 4 17 13 8 -11 34 -26 28 -7 -2 -15 1 -20 8 -4 8 -3 10 4 5 10
-6 17 11 14 35 -1 4 8 5 18 2 11 -3 20 -10 20 -15z m-1895 2 c3 -5 1 -10 -4
-10 -6 0 -11 5 -11 10 0 6 2 10 4 10 3 0 8 -4 11 -10z m1148 -4 c4 -10 1 -13
-8 -9 -8 3 -12 9 -9 14 7 12 11 11 17 -5z m973 -13 c4 -10 6 -22 5 -26 -2 -12
22 -33 47 -41 27 -9 29 -25 2 -23 -11 1 -20 5 -20 10 0 4 -4 6 -9 3 -8 -5 -22
23 -25 50 -1 6 -7 19 -15 28 -7 9 -9 16 -3 16 5 0 13 -8 18 -17z m-1011 -51
c-3 -3 -11 0 -18 7 -9 10 -8 11 6 5 10 -3 15 -9 12 -12z m634 -46 c-3 -3 -11
5 -18 17 -13 21 -12 21 5 5 10 -10 16 -20 13 -22z m308 23 c-11 -7 -23 -7 -28
-2 -5 5 3 9 19 11 24 1 25 0 9 -9z m-937 -19 c0 -5 -5 -10 -11 -10 -5 0 -7 5
-4 10 3 6 8 10 11 10 2 0 4 -4 4 -10z m965 0 c3 -5 1 -10 -4 -10 -6 0 -11 5
-11 10 0 6 2 10 4 10 3 0 8 -4 11 -10z m70 -9 c3 -5 1 -12 -5 -16 -5 -3 -10 1
-10 9 0 18 6 21 15 7z m-1005 -33 c0 -5 -9 -4 -20 2 -11 6 -20 12 -20 14 0 2
9 2 20 -1 11 -3 20 -9 20 -15z m725 2 c3 -5 1 -10 -4 -10 -6 0 -11 5 -11 10 0
6 2 10 4 10 3 0 8 -4 11 -10z m210 -18 c-3 -3 -11 0 -18 7 -9 10 -8 11 6 5 10
-3 15 -9 12 -12z m25 -34 c0 -5 5 -6 10 -3 6 3 10 1 10 -5 0 -7 -7 -9 -16 -6
-10 4 -25 -1 -35 -10 -17 -16 -18 -15 -7 8 11 24 38 35 38 16z m-535 -116 c0
-64 -4 -123 -9 -131 -6 -9 -5 -12 0 -8 6 3 9 -21 8 -61 -1 -41 -6 -68 -13 -70
-8 -3 -7 -7 3 -16 13 -9 15 -24 9 -79 -6 -66 -7 -68 -30 -62 -16 4 -22 2 -18
-5 3 -5 2 -10 -3 -10 -6 0 -12 7 -16 15 -3 9 0 15 9 15 8 0 15 6 15 13 0 8 4
7 10 -3 8 -13 10 -12 10 3 0 14 -5 16 -26 11 -18 -5 -25 -3 -20 4 3 6 0 13 -6
16 -7 4 3 4 22 1 33 -4 34 -4 16 10 -11 8 -16 15 -12 15 5 0 3 6 -3 14 -7 9
-8 17 -2 20 5 3 7 15 4 26 -3 11 -1 20 5 20 5 0 12 8 15 18 2 9 8 26 12 37 l8
20 -16 -20 c-9 -11 -17 -15 -17 -8 0 6 7 19 16 27 10 10 13 24 9 37 -5 15 -10
18 -18 10 -15 -15 -32 -14 -19 2 6 6 11 17 12 22 1 6 4 12 7 15 4 3 3 -1 -2
-9 -5 -9 -3 -12 6 -9 9 3 14 20 14 46 1 22 -2 39 -5 37 -4 -2 -6 11 -6 30 1
18 4 31 9 28 14 -8 7 8 -12 28 -13 15 -21 17 -26 9 -4 -7 -1 -16 6 -21 9 -6
10 -9 2 -9 -20 0 -26 21 -10 37 11 12 19 13 36 4 32 -18 26 6 -6 24 -23 13
-24 15 -5 10 13 -4 22 -2 22 4 0 6 3 11 8 11 4 0 7 -53 7 -118z m-645 104 c0
-2 -7 -7 -16 -10 -8 -3 -12 -2 -9 4 6 10 25 14 25 6z m174 -11 c-4 -8 -8 -15
-10 -15 -2 0 -4 7 -4 15 0 8 4 15 10 15 5 0 7 -7 4 -15z m848 -25 c-2 -23 1
-41 9 -45 7 -5 10 -4 5 3 -3 6 -3 13 2 16 10 6 9 -50 -1 -60 -3 -4 -2 -15 4
-26 6 -10 10 -42 11 -71 0 -29 5 -55 11 -59 8 -5 7 -8 -3 -9 -8 0 -4 -5 10 -9
24 -8 24 -8 3 -9 -13 -1 -23 -6 -23 -12 0 -5 3 -8 8 -6 4 3 8 -5 8 -16 6 -101
10 -137 14 -137 3 0 6 -38 6 -85 1 -51 -2 -85 -8 -85 -5 0 -12 9 -15 20 -3 11
-13 20 -22 19 -10 0 -11 -2 -3 -6 13 -5 17 -33 5 -34 -5 0 -18 -2 -31 -5 -19
-3 -21 -2 -10 10 7 7 20 11 28 8 12 -5 13 -3 4 9 -6 8 -10 23 -8 34 2 11 -7
31 -19 44 -12 13 -16 21 -9 17 14 -8 45 11 38 23 -3 4 -1 24 4 44 6 28 4 41
-7 52 -8 8 -11 15 -6 15 5 0 14 -5 21 -12 9 -9 12 -9 12 0 0 7 -6 15 -14 18
-10 4 -13 18 -9 50 3 32 1 44 -9 44 -10 0 -9 3 2 10 12 7 11 10 -5 16 -18 7
-18 8 1 15 18 7 18 8 -1 8 -11 1 -27 11 -34 24 -16 25 -23 79 -8 70 5 -3 7
-14 4 -24 -7 -26 10 -24 18 1 4 12 11 17 18 14 9 -5 9 -4 0 6 -6 7 -9 19 -6
28 4 10 2 13 -5 8 -7 -4 -10 3 -8 21 1 16 -2 36 -7 47 -6 13 -6 16 2 12 6 -4
11 0 11 8 0 9 -8 16 -17 16 -13 0 -15 2 -5 8 27 18 37 9 34 -28z m-2032 26 c0
-3 -4 -8 -10 -11 -5 -3 -10 -1 -10 4 0 6 5 11 10 11 6 0 10 -2 10 -4z m1460
-6 c0 -5 -5 -10 -11 -10 -5 0 -7 5 -4 10 3 6 8 10 11 10 2 0 4 -4 4 -10z m467
-12 c-3 -8 -6 -5 -6 6 -1 11 2 17 5 13 3 -3 4 -12 1 -19z m43 12 c0 -5 -2 -10
-4 -10 -3 0 -8 5 -11 10 -3 6 -1 10 4 10 6 0 11 -4 11 -10z m226 -45 c6 -14 8
-13 21 2 13 17 13 17 5 -2 -11 -22 1 -65 18 -65 7 0 6 -5 -2 -13 -7 -8 -18
-14 -25 -14 -7 0 -11 3 -8 5 3 3 -1 12 -8 20 -9 13 -9 14 1 8 20 -12 14 28 -8
52 -12 12 -16 22 -10 22 6 0 13 -7 16 -15z m-1196 -9 c0 -2 -7 -7 -16 -10 -8
-3 -12 -2 -9 4 6 10 25 14 25 6z m975 -15 c-3 -5 3 -12 12 -14 14 -4 13 -5 -4
-6 -23 -1 -30 9 -16 22 9 10 15 8 8 -2z m292 -11 c2 -19 -8 -26 -20 -14 -7 7
2 34 12 34 4 0 7 -9 8 -20z m-653 -20 c-6 -6 -10 -2 -11 12 -2 16 1 18 10 9 7
-7 8 -14 1 -21z m576 20 c0 -5 -5 -10 -11 -10 -5 0 -7 5 -4 10 3 6 8 10 11 10
2 0 4 -4 4 -10z m-1183 -6 c-3 -3 -12 -4 -19 -1 -8 3 -5 6 6 6 11 1 17 -2 13
-5z m173 -53 c0 -5 -7 -12 -16 -15 -14 -5 -15 -4 -4 9 14 17 20 19 20 6z m427
-13 c-3 -8 -6 -5 -6 6 -1 11 2 17 5 13 3 -3 4 -12 1 -19z m636 -15 c-3 -7 -9
-13 -15 -13 -5 0 -6 -4 -3 -10 3 -6 -1 -7 -10 -3 -12 4 -13 8 -5 13 7 4 10 12
7 17 -3 5 3 9 13 9 10 0 16 -6 13 -13z m-1058 -28 c0 -21 -5 -35 -12 -35 -7 0
-17 -8 -22 -17 -10 -17 -10 -17 -11 -1 0 9 5 20 10 23 6 4 8 11 4 16 -3 5 -10
7 -15 4 -5 -4 -9 -2 -9 3 0 6 7 13 16 16 8 3 12 2 9 -4 -3 -6 -1 -10 4 -10 6
0 11 9 11 20 0 11 3 20 8 20 4 0 7 -16 7 -35z m-50 -65 c4 -7 13 -6 27 1 16 9
19 8 13 -1 -5 -7 -8 -26 -7 -42 1 -26 -5 -38 -7 -15 0 4 -15 21 -33 37 -23 22
-28 30 -16 30 9 0 20 -5 23 -10z m1142 -6 c-3 -3 -12 -4 -19 -1 -8 3 -5 6 6 6
11 1 17 -2 13 -5z m-829 -29 c-3 -3 -9 2 -12 12 -6 14 -5 15 5 6 7 -7 10 -15
7 -18z m-331 0 c0 -8 -4 -12 -9 -9 -5 3 -6 10 -3 15 9 13 12 11 12 -6z m20
-26 c-3 -12 -3 -18 0 -15 7 7 33 -13 33 -24 0 -12 -38 0 -51 16 -8 10 -7 17 3
28 18 21 21 20 15 -5z m-50 -61 c-6 -4 -8 -11 -3 -15 5 -4 11 -2 13 5 3 6 9
12 15 12 6 0 8 -7 5 -14 -4 -10 -1 -13 9 -9 20 7 17 21 -6 28 -11 4 -18 11
-15 16 3 5 14 3 25 -4 22 -13 27 -57 8 -57 -10 0 -10 -2 -1 -8 7 -4 11 -16 9
-27 -2 -15 -9 -19 -26 -17 -22 4 -22 3 -6 -13 9 -10 14 -25 11 -33 -3 -8 0
-19 7 -24 10 -6 10 -8 1 -8 -7 0 -13 -9 -13 -19 0 -11 -4 -23 -10 -26 -5 -3
-10 -1 -10 6 0 7 -3 9 -6 6 -4 -4 -1 -14 6 -23 8 -9 10 -18 4 -22 -9 -7 -14
-28 -16 -72 0 -13 -8 -30 -17 -37 -14 -10 -12 -11 9 -7 14 3 20 2 14 -3 -18
-14 -36 -54 -30 -69 3 -8 1 -14 -4 -14 -9 0 -14 15 -11 33 1 4 -4 18 -11 30
-18 32 -20 87 -3 81 7 -3 16 -1 19 5 4 5 -3 12 -14 16 -14 4 -20 14 -19 33 2
24 2 24 6 5 3 -14 11 -23 21 -22 11 0 12 3 5 6 -16 6 -17 35 -2 50 8 8 6 14
-9 22 -14 8 -19 17 -14 33 4 18 2 20 -14 15 -14 -5 -12 -1 8 17 15 13 24 27
21 30 -4 3 -1 6 5 6 16 0 15 -10 -3 -53 -14 -33 -14 -36 1 -30 9 3 20 0 25 -8
7 -11 9 -11 9 4 0 9 -8 18 -17 18 -16 1 -17 2 -1 6 10 2 15 10 11 19 -3 8 1
14 8 14 11 0 11 3 -1 10 -10 6 -11 10 -2 10 6 0 12 5 12 11 0 5 -4 7 -10 4
-12 -7 -12 -3 -4 19 3 9 10 16 15 16 4 0 6 -6 3 -14 -4 -9 0 -14 10 -12 19 3
34 16 17 16 -7 0 -9 5 -6 10 6 10 -7 14 -32 11 -14 -2 -16 12 -6 47 4 17 8 20
14 11 5 -8 3 -17 -4 -21z m1199 -53 c-3 -9 -10 -13 -16 -10 -6 4 -5 11 3 20
15 16 22 11 13 -10z m-256 -10 c-10 -12 -10 -15 0 -15 10 0 10 -3 1 -14 -8
-10 -9 -16 -1 -19 6 -3 5 -4 -2 -3 -7 2 -12 10 -10 20 2 9 -2 16 -8 16 -5 0
-10 5 -10 11 0 5 5 7 10 4 6 -3 13 1 16 10 4 9 9 14 12 11 3 -3 -1 -12 -8 -21z
m284 -47 c-3 -4 -11 -5 -19 -1 -21 7 -19 12 4 10 11 0 18 -5 15 -9z m46 2 c0
-5 -8 -10 -17 -10 -15 0 -16 2 -3 10 19 12 20 12 20 0z m-3020 -4 c0 -3 -4 -8
-10 -11 -5 -3 -10 -1 -10 4 0 6 5 11 10 11 6 0 10 -2 10 -4z m2144 -5 c4 -5
-3 -7 -14 -4 -23 6 -26 13 -6 13 8 0 17 -4 20 -9z m-943 -34 c-10 -9 -11 -8
-5 6 3 10 9 15 12 12 3 -3 0 -11 -7 -18z m-1226 3 c-3 -5 -14 -10 -23 -9 -14
0 -13 2 3 9 27 11 27 11 20 0z m3020 -19 c1 -10 -5 -18 -12 -18 -8 0 -11 7 -8
14 3 8 5 20 5 25 0 18 14 -1 15 -21z m-725 9 c0 15 26 12 40 -5 8 -9 8 -15 2
-15 -6 0 -13 6 -15 13 -3 7 -6 5 -6 -5 -1 -10 3 -18 9 -18 6 0 6 -9 0 -25 -5
-14 -9 -29 -9 -33 1 -4 1 -14 0 -21 -2 -25 -24 4 -27 36 -2 18 0 23 5 15 6
-11 10 -10 15 4 4 10 1 21 -6 26 -18 11 -30 10 -23 -2 3 -5 3 -10 -2 -10 -4 0
-13 11 -19 24 -11 23 -10 24 12 16 15 -6 24 -6 24 0z m660 -10 c0 -5 -2 -10
-4 -10 -3 0 -8 5 -11 10 -3 6 -1 10 4 10 6 0 11 -4 11 -10z m-2970 -24 c0 -3
-4 -8 -10 -11 -5 -3 -10 -1 -10 4 0 6 5 11 10 11 6 0 10 -2 10 -4z m1740 -15
c0 -5 -9 -11 -21 -14 -16 -4 -18 -3 -8 9 13 16 29 19 29 5z m1275 -11 c-4 -11
-2 -20 4 -20 6 0 11 5 11 12 0 9 3 9 11 1 8 -8 8 -16 0 -30 -6 -10 -11 -12
-11 -5 0 6 -5 12 -11 12 -6 0 -9 -7 -6 -15 4 -8 2 -17 -3 -20 -5 -3 -8 14 -7
40 1 25 5 45 10 45 5 0 5 -9 2 -20z m-1368 4 c-3 -3 -12 -4 -19 -1 -8 3 -5 6
6 6 11 1 17 -2 13 -5z m621 -49 c-3 -3 -9 2 -12 12 -6 14 -5 15 5 6 7 -7 10
-15 7 -18z m516 9 c23 -9 10 -23 -17 -17 -21 4 -22 4 -3 -11 15 -12 16 -16 5
-16 -10 0 -11 -2 -2 -8 8 -5 11 -23 7 -52 -7 -56 -17 -68 -40 -45 -17 17 -17
17 6 10 22 -7 23 -6 12 8 -7 9 -22 14 -33 12 -27 -5 -24 4 7 15 15 6 22 14 18
22 -5 8 -1 9 12 5 15 -6 14 -3 -5 13 -13 11 -18 20 -11 20 7 0 10 6 7 14 -3 7
0 19 6 25 13 13 11 13 31 5z m-2807 -10 c-3 -3 -12 -4 -19 -1 -8 3 -5 6 6 6
11 1 17 -2 13 -5z m1633 -19 c7 -9 8 -15 2 -15 -5 0 -12 7 -16 15 -3 8 -4 15
-2 15 2 0 9 -7 16 -15z m714 -16 c-2 -4 -11 -6 -19 -2 -8 3 -15 0 -15 -6 0 -6
3 -10 8 -10 24 4 32 -4 32 -33 0 -17 -3 -28 -7 -24 -8 7 -9 11 -12 39 -1 8 -4
7 -11 -3 -11 -16 -11 -17 -14 41 -2 24 0 26 21 16 12 -5 20 -14 17 -18z m712
1 c0 -12 -4 -16 -9 -11 -5 5 -6 14 -3 20 10 15 12 14 12 -9z m-3142 -66 c3 -8
2 -12 -4 -9 -6 3 -10 10 -10 16 0 14 7 11 14 -7z m1766 7 c0 -5 -7 -12 -16
-15 -14 -5 -15 -4 -4 9 14 17 20 19 20 6z m37 2 c-19 -5 -17 -30 2 -25 6 1 11
-3 11 -9 0 -5 5 -7 12 -3 6 4 8 3 5 -4 -9 -14 -44 -4 -51 15 -8 20 1 33 22 32
15 -1 15 -2 -1 -6z m607 -19 c3 -8 2 -12 -4 -9 -6 3 -10 10 -10 16 0 14 7 11
14 -7z m-2447 -26 c-3 -8 -6 -5 -6 6 -1 11 2 17 5 13 3 -3 4 -12 1 -19z m1798
12 c-3 -5 -1 -10 6 -10 7 0 10 -3 6 -6 -9 -9 -28 6 -22 17 4 5 8 9 11 9 3 0 2
-4 -1 -10z m992 -22 c-3 -8 -6 -5 -6 6 -1 11 2 17 5 13 3 -3 4 -12 1 -19z
m-957 -8 c0 -5 -5 -10 -11 -10 -5 0 -7 5 -4 10 3 6 8 10 11 10 2 0 4 -4 4 -10z
m-105 -29 c-3 -5 2 -11 10 -13 13 -3 13 -5 -2 -14 -15 -9 -18 -7 -19 12 -1 13
2 24 8 24 5 0 7 -4 3 -9z m1473 -3 c7 -7 12 -16 12 -21 0 -5 -7 -2 -15 7 -9 8
-23 13 -33 10 -14 -5 -15 -4 -2 5 19 14 23 14 38 -1z m-1333 -8 c3 -5 1 -10
-5 -10 -7 0 -9 -7 -6 -15 3 -9 -1 -18 -9 -21 -8 -4 -13 -10 -10 -14 3 -5 1
-11 -5 -15 -6 -4 -8 -11 -5 -16 4 -5 2 -9 -3 -9 -6 0 -8 16 -7 36 3 29 0 37
-15 41 -15 4 -16 8 -7 19 14 16 63 19 72 4z m1117 -42 c-7 -7 -12 -8 -12 -2 0
6 3 14 7 17 3 4 9 5 12 2 2 -3 -1 -11 -7 -17z m298 12 c0 -5 -4 -10 -10 -10
-5 0 -10 5 -10 10 0 6 5 10 10 10 6 0 10 -4 10 -10z m-1478 -25 c3 -14 2 -25
-1 -25 -4 0 -8 -12 -9 -27 -1 -19 1 -24 7 -14 5 7 11 9 14 5 3 -5 -1 -15 -9
-22 -11 -10 -14 -10 -14 0 -1 8 -7 5 -15 -6 -11 -15 -15 -16 -16 -5 0 10 -2
10 -6 2 -6 -16 -33 -17 -33 -2 0 5 5 7 10 4 6 -3 10 -1 10 4 0 6 9 11 20 11
18 0 19 3 10 20 -8 16 -8 18 4 14 11 -4 13 3 10 30 -3 41 11 49 18 11z m1028
21 c0 -11 -19 -15 -25 -6 -3 5 1 10 9 10 9 0 16 -2 16 -4z m420 -8 c0 -4 -5
-10 -11 -14 -6 -3 -9 -14 -6 -24 3 -13 0 -17 -9 -13 -10 4 -11 10 -4 23 8 15
6 21 -7 29 -14 7 -12 9 10 8 15 -1 27 -5 27 -9z m-870 -2 c0 -2 -7 -7 -16 -10
-8 -3 -12 -2 -9 4 6 10 25 14 25 6z m676 -34 c-17 -16 -18 -16 -5 5 7 12 15
20 18 17 3 -2 -3 -12 -13 -22z m-2395 -39 c13 -16 12 -17 -3 -4 -17 13 -22 21
-14 21 2 0 10 -8 17 -17z m2569 -16 c0 -5 -4 -5 -10 -2 -5 3 -10 14 -10 23 0
15 2 15 10 2 5 -8 10 -19 10 -23z m-163 1 c-3 -8 -6 -5 -6 6 -1 11 2 17 5 13
3 -3 4 -12 1 -19z m37 11 c-3 -6 0 -15 7 -20 11 -7 10 -9 -3 -9 -18 0 -24 20
-11 33 10 11 15 8 7 -4z m-2454 -54 c-12 -14 -11 -18 1 -26 12 -7 11 -9 -3 -9
-20 0 -32 16 -18 25 16 10 12 25 -7 26 -15 0 -15 2 2 9 27 10 42 -5 25 -25z
m1667 20 c0 -8 -4 -12 -9 -9 -5 3 -6 10 -3 15 9 13 12 11 12 -6z m940 2 c0 -8
-6 -14 -14 -14 -9 0 -10 4 -2 14 6 7 12 13 14 13 1 0 2 -6 2 -13z m-1212 -7
c3 -5 1 -10 -4 -10 -6 0 -11 5 -11 10 0 6 2 10 4 10 3 0 8 -4 11 -10z m340 0
c-3 -5 -11 -10 -16 -10 -6 0 -7 5 -4 10 3 6 11 10 16 10 6 0 7 -4 4 -10z
m-1784 -29 c-7 -5 -10 -14 -7 -20 4 -6 2 -11 -3 -11 -13 0 -13 6 -5 38 5 17
10 20 18 12 8 -8 7 -13 -3 -19z m1104 19 c-3 -5 -12 -10 -18 -10 -7 0 -6 4 3
10 19 12 23 12 15 0z m1435 -5 c9 6 11 4 6 -4 -5 -7 -14 -10 -22 -7 -8 3 -14
0 -14 -6 0 -6 -3 -9 -6 -5 -4 3 -3 14 0 24 6 14 9 15 15 4 5 -8 14 -10 21 -6z
m-205 -5 c3 -5 1 -10 -4 -10 -6 0 -11 5 -11 10 0 6 2 10 4 10 3 0 8 -4 11 -10z
m-642 -26 c-4 -10 -9 -12 -15 -6 -12 12 -1 35 12 27 5 -3 6 -13 3 -21z m707
22 c0 -2 -8 -10 -17 -17 -16 -13 -17 -12 -4 4 13 16 21 21 21 13z m264 -11
c-4 -8 -11 -12 -16 -9 -6 4 -5 10 3 15 19 12 19 11 13 -6z m-2734 1 c0 -2 -7
-7 -16 -10 -8 -3 -12 -2 -9 4 6 10 25 14 25 6z m37 -11 c0 -11 -4 -12 -14 -4
-7 6 -13 13 -13 15 0 2 6 4 13 4 8 0 14 -7 14 -15z m1473 5 c-8 -5 -19 -10
-25 -10 -5 0 -3 5 5 10 8 5 20 10 25 10 6 0 3 -5 -5 -10z m-303 -16 c-3 -3
-12 -4 -19 -1 -8 3 -5 6 6 6 11 1 17 -2 13 -5z m1256 -9 c-3 -9 -8 -14 -10
-11 -3 3 -2 9 2 15 9 16 15 13 8 -4z m-2432 -39 c6 -6 9 -4 9 6 0 9 5 20 12
24 7 4 8 3 4 -4 -4 -7 -3 -12 3 -12 5 0 12 6 14 13 3 6 6 -7 6 -30 1 -23 7
-44 14 -46 8 -4 7 -6 -3 -6 -9 -1 -22 5 -28 11 -10 10 -15 10 -21 -1 -6 -9
-11 -10 -15 -2 -4 6 -2 11 3 11 17 0 13 13 -14 42 -16 17 -20 28 -12 31 7 2
14 -3 15 -12 2 -9 8 -20 13 -25z m83 28 c9 -24 2 -26 -12 -4 -7 11 -8 20 -3
20 5 0 12 -7 15 -16z m1340 0 c3 -8 2 -12 -4 -9 -6 3 -10 10 -10 16 0 14 7 11
14 -7z m1303 -4 c7 -8 13 -19 13 -24 0 -6 -6 -1 -14 9 -8 11 -20 16 -29 12 -9
-3 -19 -2 -21 2 -14 23 33 24 51 1z m-1197 -5 c0 -2 -9 -3 -19 -2 -11 0 -18 5
-15 9 4 6 34 0 34 -7z m190 5 c0 -5 -5 -10 -11 -10 -5 0 -7 5 -4 10 3 6 8 10
11 10 2 0 4 -4 4 -10z m940 0 c0 -5 -2 -10 -4 -10 -3 0 -8 5 -11 10 -3 6 -1
10 4 10 6 0 11 -4 11 -10z m-186 -15 c-4 -9 -17 -15 -33 -14 -20 1 -22 2 -6 6
11 3 24 9 30 14 13 13 15 11 9 -6z m-2509 -16 c-4 -5 2 -9 12 -9 15 0 15 -2 3
-9 -18 -12 -30 -5 -30 20 0 11 5 17 10 14 6 -4 8 -11 5 -16z m1905 1 c0 -5 -2
-10 -4 -10 -3 0 -8 5 -11 10 -3 6 -1 10 4 10 6 0 11 -4 11 -10z m865 -29 c-6
-5 -25 10 -25 20 0 5 6 4 14 -3 8 -7 12 -15 11 -17z m-2808 4 c0 -8 -4 -15 -9
-15 -10 0 -11 14 -1 23 9 10 10 9 10 -8z m1493 5 c8 -5 11 -10 5 -10 -5 0 -17
5 -25 10 -8 5 -10 10 -5 10 6 0 17 -5 25 -10z m1263 -4 c4 -10 0 -14 -14 -13
-22 1 -25 13 -6 20 6 3 13 6 13 6 1 1 4 -5 7 -13z m-174 -30 c-3 -3 -11 5 -18
17 -13 21 -12 21 5 5 10 -10 16 -20 13 -22z m-775 8 c9 -24 7 -27 -9 -10 -17
17 -19 26 -6 26 5 0 12 -7 15 -16z m1010 3 c3 3 6 1 6 -6 0 -7 -9 -9 -27 -5
l-28 7 30 -28 c17 -15 26 -25 20 -22 -5 3 -16 -1 -23 -9 -10 -11 -10 -14 0
-15 10 0 10 -2 1 -6 -21 -8 -15 -26 6 -20 13 3 18 1 15 -8 -6 -13 -28 -14 -40
-2 -13 13 -10 57 3 57 18 0 16 17 -2 28 -23 12 -8 45 15 32 9 -5 20 -6 24 -3z
m-2835 -31 c-3 -3 -11 5 -18 17 -13 21 -12 21 5 5 10 -10 16 -20 13 -22z
m2561 -7 c0 -4 -6 -9 -12 -12 -9 -3 -13 6 -14 24 -1 26 0 27 12 11 7 -9 14
-20 14 -23z m75 31 c3 -6 -1 -7 -9 -4 -18 7 -21 14 -7 14 6 0 13 -4 16 -10z
m132 -6 c-3 -3 -12 -4 -19 -1 -8 3 -5 6 6 6 11 1 17 -2 13 -5z m-2656 -14 c13
-8 19 -7 19 0 0 6 4 8 10 5 6 -4 5 -11 -3 -20 -10 -11 -15 -11 -28 1 -9 8 -24
12 -35 8 -16 -5 -16 -4 -4 5 19 13 17 13 41 1z m1609 -10 c0 -5 -2 -10 -4 -10
-3 0 -8 5 -11 10 -3 6 -1 10 4 10 6 0 11 -4 11 -10z m140 -4 c0 -8 -7 -16 -15
-20 -12 -4 -13 -2 -2 14 14 24 17 25 17 6z m228 -23 c-9 -9 -30 -17 -45 -18
-25 -2 -24 -1 10 13 28 11 36 19 32 31 -5 13 -4 14 6 3 11 -10 10 -15 -3 -29z
m-2158 13 c0 -2 -7 -7 -16 -10 -8 -3 -12 -2 -9 4 6 10 25 14 25 6z m1595 -26
c-1 -11 -5 -23 -10 -27 -4 -5 -5 -3 -1 4 3 6 1 15 -5 19 -8 4 -7 9 2 15 8 5
14 9 15 9 0 0 0 -9 -1 -20z m849 -20 c5 -23 5 -23 -7 3 -7 15 -17 24 -22 20
-4 -5 -5 -2 0 5 9 17 21 5 29 -28z m491 -9 c-2 -2 -11 3 -19 12 -8 8 -12 17
-9 21 3 3 12 -2 19 -12 7 -9 11 -19 9 -21z m-1288 22 c-4 -3 -1 -13 6 -22 11
-14 10 -14 -5 -2 -16 12 -16 31 -1 31 4 0 3 -3 0 -7z m83 -3 c0 -5 -7 -7 -15
-4 -8 4 -15 8 -15 10 0 2 7 4 15 4 8 0 15 -4 15 -10z m90 -5 c-7 -9 -15 -13
-19 -10 -3 3 1 10 9 15 21 14 24 12 10 -5z m-1020 -9 c0 -3 -4 -8 -10 -11 -5
-3 -10 -1 -10 4 0 6 5 11 10 11 6 0 10 -2 10 -4z m1083 -17 c-6 -6 -19 -9 -29
-6 -16 4 -15 5 4 6 12 0 22 6 22 13 0 6 3 8 7 5 4 -4 2 -12 -4 -18z m231 6
c-4 -8 -8 -15 -10 -15 -2 0 -4 7 -4 15 0 8 4 15 10 15 5 0 7 -7 4 -15z m357
-18 c-10 -9 -11 -8 -5 6 3 10 9 15 12 12 3 -3 0 -11 -7 -18z m-919 -9 c-7 -7
-12 -8 -12 -2 0 6 3 14 7 17 3 4 9 5 12 2 2 -3 -1 -11 -7 -17z m41 7 c-3 -9
-8 -14 -10 -11 -3 3 -2 9 2 15 9 16 15 13 8 -4z m97 11 c0 -2 -8 -10 -17 -17
-16 -13 -17 -12 -4 4 13 16 21 21 21 13z m1205 -31 c13 -39 14 -50 3 -56 -7
-4 -6 -13 1 -28 7 -12 16 -19 21 -16 5 3 7 -3 5 -13 -2 -13 2 -19 13 -18 31 2
20 -46 -18 -81 -19 -18 -30 -33 -23 -33 6 0 15 5 18 10 7 12 26 14 24 3 -4
-23 2 -43 11 -38 5 3 7 12 3 20 -3 8 1 15 8 15 7 0 9 -3 6 -7 -4 -3 -1 -13 6
-21 10 -12 9 -16 -2 -20 -11 -4 -11 -6 0 -12 7 -5 14 -19 16 -32 2 -14 0 -18
-5 -11 -10 16 -49 6 -57 -14 -4 -12 -3 -13 8 -5 8 7 17 9 20 5 12 -11 8 -23
-8 -23 -8 0 -15 -9 -15 -19 0 -11 -4 -22 -9 -26 -6 -3 -8 5 -5 19 2 14 -1 28
-7 32 -8 4 -9 3 -5 -4 4 -7 2 -12 -4 -12 -7 0 -9 8 -5 19 3 11 1 22 -5 26 -5
3 -10 12 -10 18 0 7 4 6 11 -3 9 -12 10 -12 5 4 -4 11 0 26 9 37 15 16 15 18
-4 24 -17 5 -20 12 -14 33 3 15 10 29 15 30 4 2 6 8 3 12 -3 5 -12 7 -20 3
-20 -7 -19 7 3 24 9 8 11 12 5 8 -7 -3 -13 -4 -13 -1 0 2 -3 12 -6 20 -5 12
-2 15 10 10 9 -3 16 -1 16 5 0 6 -5 11 -11 11 -5 0 -7 5 -4 10 3 6 -1 13 -10
16 -12 5 -13 10 -4 20 17 21 6 57 -21 71 -25 12 -25 12 7 10 22 -1 34 -8 38
-22z m-1645 11 c0 -2 -7 -7 -16 -10 -8 -3 -12 -2 -9 4 6 10 25 14 25 6z m377
-2 c-3 -3 -12 -4 -19 -1 -8 3 -5 6 6 6 11 1 17 -2 13 -5z m823 2 c0 -11 -19
-15 -25 -6 -3 5 1 10 9 10 9 0 16 -2 16 -4z m40 -16 c0 -5 -5 -10 -11 -10 -5
0 -7 5 -4 10 3 6 8 10 11 10 2 0 4 -4 4 -10z m263 -5 c4 -8 3 -16 -1 -19 -4
-3 -9 4 -9 15 -2 23 3 25 10 4z m-1134 -2 c14 11 14 10 2 -6 -13 -16 -13 -20
0 -28 8 -4 23 -6 34 -3 l20 6 -20 -15 c-11 -9 -22 -11 -23 -6 -2 5 -7 7 -11 5
-4 -3 -16 9 -26 27 -10 18 -12 26 -5 20 11 -10 17 -10 29 0z m71 -11 c0 -15
-2 -15 -10 -2 -7 11 -10 11 -10 2 0 -7 -4 -10 -10 -7 -16 10 -11 21 10 22 13
1 20 -4 20 -15z m182 -4 c-7 -7 -12 -8 -12 -2 0 6 3 14 7 17 3 4 9 5 12 2 2
-3 -1 -11 -7 -17z m208 12 c0 -5 -2 -10 -4 -10 -3 0 -8 5 -11 10 -3 6 -1 10 4
10 6 0 11 -4 11 -10z m790 3 c0 -5 -5 -15 -10 -23 -8 -12 -10 -11 -10 8 0 12
5 22 10 22 6 0 10 -3 10 -7z m-1160 -23 c-6 -11 -13 -20 -16 -20 -2 0 0 9 6
20 6 11 13 20 16 20 2 0 0 -9 -6 -20z m520 10 c18 -12 2 -12 -25 0 -13 6 -15
9 -5 9 8 0 22 -4 30 -9z m239 -9 c7 -5 9 -11 5 -14 -5 -3 -15 1 -22 9 -14 16
-5 18 17 5z m242 -14 c-10 -9 -11 -8 -5 6 3 10 9 15 12 12 3 -3 0 -11 -7 -18z
m112 -19 c-10 -21 -10 -21 -9 9 1 19 5 28 10 23 6 -6 5 -18 -1 -32z m-1068 22
c3 -5 1 -10 -4 -10 -6 0 -11 5 -11 10 0 6 2 10 4 10 3 0 8 -4 11 -10z m-1048
-6 c-3 -3 -12 -4 -19 -1 -8 3 -5 6 6 6 11 1 17 -2 13 -5z m886 -28 c-2 -20 3
-29 17 -33 11 -3 22 -15 26 -26 7 -22 7 -22 15 1 5 14 14 20 20 16 7 -4 7 -9
2 -13 -5 -3 -12 -13 -16 -22 -4 -12 -16 -16 -41 -14 -23 1 -37 -3 -41 -13 -3
-8 -8 -13 -10 -10 -10 9 7 38 21 38 8 0 14 9 14 20 0 12 -7 20 -17 20 -14 0
-15 -2 -4 -9 8 -5 9 -11 3 -15 -14 -8 -24 8 -16 28 3 9 1 16 -6 16 -6 0 -9 4
-6 9 4 5 0 11 -6 14 -7 2 -9 8 -5 13 5 5 15 0 24 -11 15 -20 15 -20 10 3 -4
15 -1 22 6 19 7 -2 11 -16 10 -31z m854 28 c-3 -3 -12 -4 -19 -1 -8 3 -5 6 6
6 11 1 17 -2 13 -5z m-577 -14 c0 -5 6 -10 14 -10 8 0 17 -4 20 -9 9 -14 -32
-1 -45 15 -8 10 -8 14 0 14 6 0 11 -4 11 -10z m640 1 c0 -6 -4 -13 -10 -16 -5
-3 -10 1 -10 9 0 9 5 16 10 16 6 0 10 -4 10 -9z m-36 -10 c4 -5 -3 -7 -14 -4
-14 4 -20 0 -20 -13 0 -9 -3 -15 -6 -11 -4 3 -4 13 -1 22 7 16 32 20 41 6z
m273 -13 c-3 -8 -6 -5 -6 6 -1 11 2 17 5 13 3 -3 4 -12 1 -19z m-1067 -5 c0
-10 -4 -14 -8 -8 -4 6 -11 13 -16 18 -5 4 -2 7 7 7 10 0 17 -8 17 -17z m27 -5
c-3 -8 -6 -5 -6 6 -1 11 2 17 5 13 3 -3 4 -12 1 -19z m43 12 c0 -5 -2 -10 -4
-10 -3 0 -8 5 -11 10 -3 6 -1 10 4 10 6 0 11 -4 11 -10z m400 -14 c0 -2 -7 -7
-16 -10 -8 -3 -12 -2 -9 4 6 10 25 14 25 6z m100 0 c0 -3 -4 -8 -10 -11 -5 -3
-10 -1 -10 4 0 6 5 11 10 11 6 0 10 -2 10 -4z m-1600 -21 c0 -12 -19 -12 -23
0 -4 9 -1 12 9 8 7 -3 14 -7 14 -8z m1070 0 c-7 -8 -17 -15 -23 -15 -6 0 -2 7
9 15 25 19 30 19 14 0z m754 6 c3 -5 -5 -11 -19 -13 -28 -6 -35 8 -7 15 9 3
18 5 19 6 1 0 4 -3 7 -8z m-1229 -39 c-17 -15 -18 -15 -6 0 7 9 9 23 5 30 -6
10 -4 11 7 0 11 -10 10 -15 -6 -30z m848 23 c-3 -9 -8 -14 -10 -11 -3 3 -2 9
2 15 9 16 15 13 8 -4z m-1276 -27 c-3 -8 -6 -5 -6 6 -1 11 2 17 5 13 3 -3 4
-12 1 -19z m1953 18 c0 -3 -4 -8 -10 -11 -5 -3 -10 -1 -10 4 0 6 5 11 10 11 6
0 10 -2 10 -4z m-610 -10 c0 -3 -4 -8 -10 -11 -5 -3 -10 -1 -10 4 0 6 5 11 10
11 6 0 10 -2 10 -4z m-470 -39 c0 -5 -4 -5 -10 -2 -5 3 -10 14 -10 23 0 15 2
15 10 2 5 -8 10 -19 10 -23z m-523 1 c-3 -8 -6 -5 -6 6 -1 11 2 17 5 13 3 -3
4 -12 1 -19z m101 -5 c-6 -8 -18 -11 -26 -8 -9 3 -12 0 -9 -9 4 -10 1 -13 -9
-9 -30 11 -12 29 25 24 7 -2 11 2 7 7 -3 5 1 9 9 9 11 0 12 -3 3 -14z m331
-14 c-11 -8 -10 -12 5 -24 11 -8 17 -17 15 -20 -3 -3 -15 4 -27 15 -12 11 -27
20 -34 20 -7 0 -2 6 12 14 27 14 51 9 29 -5z m57 -14 c-6 -16 -36 -10 -36 7 0
6 6 5 15 -2 13 -10 15 -9 16 11 0 13 3 18 6 11 3 -7 2 -19 -1 -27z m114 25 c0
-5 -5 -10 -11 -10 -5 0 -7 5 -4 10 3 6 8 10 11 10 2 0 4 -4 4 -10z m1090 0 c0
-5 -7 -10 -16 -10 -8 0 -12 5 -9 10 3 6 10 10 16 10 5 0 9 -4 9 -10z m100 -20
c-8 -5 -17 -7 -19 -4 -3 3 1 9 9 14 8 5 17 7 19 4 3 -3 -1 -9 -9 -14z m-1080
-10 c0 -5 -5 -10 -11 -10 -5 0 -7 5 -4 10 3 6 8 10 11 10 2 0 4 -4 4 -10z
m-665 -10 c3 -5 1 -10 -4 -10 -6 0 -11 5 -11 10 0 6 2 10 4 10 3 0 8 -4 11
-10z m1595 6 c0 -2 -7 -6 -15 -10 -8 -3 -15 -1 -15 4 0 6 7 10 15 10 8 0 15
-2 15 -4z m54 -12 c3 -8 2 -12 -4 -9 -6 3 -10 10 -10 16 0 14 7 11 14 -7z
m-1189 -4 c-3 -5 -12 -10 -18 -10 -7 0 -6 4 3 10 19 12 23 12 15 0z m192 -22
c-3 -8 -6 -5 -6 6 -1 11 2 17 5 13 3 -3 4 -12 1 -19z m-217 -9 c0 -6 -4 -7
-10 -4 -5 3 -10 11 -10 16 0 6 5 7 10 4 6 -3 10 -11 10 -16z m155 11 c-3 -5
-12 -10 -18 -10 -7 0 -6 4 3 10 19 12 23 12 15 0z m45 0 c0 -5 -8 -10 -17 -10
-15 0 -16 2 -3 10 19 12 20 12 20 0z m513 3 c-7 -2 -13 -12 -13 -20 0 -9 -3
-14 -6 -10 -10 10 4 37 18 36 10 0 10 -2 1 -6z m326 -20 c2 -2 -5 -3 -16 -3
-11 0 -20 7 -20 15 0 12 3 12 16 3 9 -7 18 -14 20 -15z m181 -28 c-7 -8 -20
-14 -29 -14 -13 1 -13 2 2 6 9 2 17 14 17 26 0 16 3 18 12 9 8 -8 8 -15 -2
-27z m-2192 -10 c-3 -3 -9 2 -12 12 -6 14 -5 15 5 6 7 -7 10 -15 7 -18z m1047
15 c3 -5 -1 -10 -9 -10 -8 0 -18 5 -21 10 -3 6 1 10 9 10 8 0 18 -4 21 -10z
m759 -6 c8 -22 8 -24 -7 -24 -7 0 -13 9 -13 20 0 24 11 26 20 4z m-904 -14 c0
-5 -2 -10 -4 -10 -3 0 -8 5 -11 10 -3 6 -1 10 4 10 6 0 11 -4 11 -10z m740
-10 c0 -5 -5 -10 -11 -10 -5 0 -7 5 -4 10 3 6 8 10 11 10 2 0 4 -4 4 -10z
m-775 -10 c-3 -5 -11 -10 -16 -10 -6 0 -7 5 -4 10 3 6 11 10 16 10 6 0 7 -4 4
-10z m1165 -18 c0 -8 -1 -13 -3 -11 -1 2 -9 12 -16 22 -12 15 -12 17 3 11 9
-3 16 -13 16 -22z m-222 7 c-2 -3 3 -13 10 -22 11 -13 10 -15 -8 -10 -16 4
-18 8 -9 20 10 11 8 12 -15 3 -34 -13 -36 -12 -36 1 0 5 4 8 8 5 4 -2 14 -1
22 4 15 10 34 9 28 -1z m342 -13 c0 -3 -4 -8 -10 -11 -5 -3 -10 -1 -10 4 0 6
5 11 10 11 6 0 10 -2 10 -4z m-1235 -16 c3 -5 -1 -10 -10 -10 -9 0 -13 5 -10
10 3 6 8 10 10 10 2 0 7 -4 10 -10z m-993 -32 c-8 -8 -9 -4 -5 13 4 13 8 18
11 10 2 -7 -1 -18 -6 -23z m1265 13 c6 6 15 4 24 -7 12 -16 12 -17 -4 -11 -13
5 -17 3 -14 -5 4 -13 -20 -37 -38 -37 -5 0 -2 6 9 14 17 13 14 41 -4 30 -4 -3
-11 2 -14 10 -4 12 -2 13 13 6 12 -7 21 -7 28 0z m1033 -1 c0 -5 -5 -10 -11
-10 -5 0 -7 5 -4 10 3 6 8 10 11 10 2 0 4 -4 4 -10z m-1695 -10 c3 -5 1 -10
-4 -10 -6 0 -11 5 -11 10 0 6 2 10 4 10 3 0 8 -4 11 -10z m1284 -12 c-5 -10
-11 -18 -12 -18 -2 0 -3 8 -3 18 0 10 6 19 13 19 8 0 9 -6 2 -19z m499 -10
c-2 -6 -10 -13 -16 -14 -9 -2 -9 -1 -1 3 8 4 7 8 -2 14 -11 7 -10 9 4 9 10 0
17 -5 15 -12z m-38 -14 c0 -11 -28 -33 -34 -27 -10 10 -7 25 4 18 6 -3 10 -1
10 4 0 6 5 11 10 11 6 0 10 -3 10 -6z m-425 -32 c13 6 12 3 -4 -10 -14 -11
-32 -17 -40 -14 -9 3 -11 7 -4 9 7 3 10 12 7 21 -5 16 -5 16 8 0 10 -12 19
-14 33 -6z m-690 -30 c0 -10 9 -18 23 -20 12 -2 22 -8 22 -13 0 -6 -6 -7 -12
-3 -7 4 -5 -2 5 -13 29 -33 19 -36 -14 -4 -17 17 -35 29 -40 25 -5 -3 -5 5 0
19 6 14 8 28 5 31 -2 3 -1 3 3 0 4 -3 8 -13 8 -22z m965 13 c7 -9 8 -15 2 -15
-5 0 -12 7 -16 15 -3 8 -4 15 -2 15 2 0 9 -7 16 -15z m-870 -9 c0 -3 -4 -8
-10 -11 -5 -3 -10 -1 -10 4 0 6 5 11 10 11 6 0 10 -2 10 -4z m311 -15 c-13 -8
-13 -12 -1 -28 13 -17 13 -17 -4 -1 -19 16 -15 38 7 38 8 0 7 -4 -2 -9z m279
-11 c0 -5 -4 -10 -10 -10 -5 0 -10 5 -10 10 0 6 5 10 10 10 6 0 10 -4 10 -10z
m375 -40 c-3 -4 1 -11 7 -13 8 -4 9 -6 2 -6 -7 -1 -19 11 -29 25 -16 25 -16
25 5 14 11 -6 18 -15 15 -20z m-1078 -2 c-3 -8 -6 -5 -6 6 -1 11 2 17 5 13 3
-3 4 -12 1 -19z m133 -14 c0 -8 -4 -12 -10 -9 -5 3 -10 10 -10 16 0 5 5 9 10
9 6 0 10 -7 10 -16z m640 -21 c0 -32 -5 -28 -14 10 -4 19 -3 26 4 22 5 -3 10
-18 10 -32z m-58 5 c-7 -7 -12 -8 -12 -2 0 6 3 14 7 17 3 4 9 5 12 2 2 -3 -1
-11 -7 -17z m-1512 8 c0 -3 -4 -8 -10 -11 -5 -3 -10 -1 -10 4 0 6 5 11 10 11
6 0 10 -2 10 -4z m136 -36 c-1 -26 -3 -28 -13 -14 -9 12 -9 19 0 30 7 7 12 13
13 14 1 0 1 -14 0 -30z m766 -2 c-8 -8 -9 -4 -5 13 4 13 8 18 11 10 2 -7 -1
-18 -6 -23z m643 22 c3 -5 1 -10 -4 -10 -6 0 -11 5 -11 10 0 6 2 10 4 10 3 0
8 -4 11 -10z m-1360 -10 c-3 -5 -12 -10 -18 -10 -7 0 -6 4 3 10 19 12 23 12
15 0z m1319 -24 c-3 -9 -11 -16 -18 -16 -6 0 -4 -5 4 -10 9 -6 11 -10 3 -10
-7 0 -10 -6 -7 -14 3 -8 1 -16 -3 -19 -5 -3 -9 6 -9 21 1 18 -6 30 -22 38 -32
16 -33 19 -7 19 13 0 21 -3 18 -7 -2 -5 3 -8 12 -8 8 0 18 7 22 15 3 9 7 14 9
12 3 -2 2 -12 -2 -21z m405 -15 c0 -10 -2 -12 -6 -3 -2 6 -8 10 -12 8 -4 -3
-8 4 -8 15 -2 17 1 18 13 9 8 -7 14 -20 13 -29z m-1102 7 c-3 -8 -6 -5 -6 6
-1 11 2 17 5 13 3 -3 4 -12 1 -19z m46 -4 c-7 -19 -10 -18 -16 5 -3 13 -1 18
9 14 7 -2 10 -11 7 -19z m1117 7 c0 -4 -11 -6 -25 -3 -14 2 -25 6 -25 8 0 2
11 4 25 4 14 0 25 -4 25 -9z m-1040 -20 c0 -3 -8 -15 -16 -26 -16 -20 -16 -19
-9 4 5 18 4 22 -5 16 -8 -5 -11 -4 -7 2 7 10 37 14 37 4z m-787 -14 c7 4 6 -1
-2 -10 -7 -9 -21 -17 -30 -16 -10 0 -11 2 -3 6 6 2 12 12 13 21 0 11 2 12 6 4
2 -6 10 -9 16 -5z m700 -12 c-3 -9 -8 -14 -10 -11 -3 3 -2 9 2 15 9 16 15 13
8 -4z m-753 -5 c0 -5 -5 -10 -11 -10 -5 0 -7 5 -4 10 3 6 8 10 11 10 2 0 4 -4
4 -10z m700 -30 c8 -5 11 -10 5 -10 -5 0 -17 5 -25 10 -8 5 -10 10 -5 10 6 0
17 -5 25 -10z m70 0 c-8 -5 -19 -10 -25 -10 -5 0 -3 5 5 10 8 5 20 10 25 10 6
0 3 -5 -5 -10z m600 0 c0 -5 -2 -10 -4 -10 -3 0 -8 5 -11 10 -3 6 -1 10 4 10
6 0 11 -4 11 -10z m-75 -60 c-3 -5 -12 -10 -18 -10 -7 0 -6 4 3 10 19 12 23
12 15 0z m35 -30 c0 -5 -7 -7 -15 -4 -8 4 -15 8 -15 10 0 2 7 4 15 4 8 0 15
-4 15 -10z m35 -30 c3 -5 -1 -10 -10 -10 -9 0 -13 5 -10 10 3 6 8 10 10 10 2
0 7 -4 10 -10z m-610 -40 c-3 -5 -12 -10 -18 -10 -7 0 -6 4 3 10 19 12 23 12
15 0z"/>
<path d="M2665 6890 c-7 -11 22 -26 32 -16 4 3 -1 6 -11 6 -9 0 -14 5 -11 10
3 6 4 10 1 10 -3 0 -8 -5 -11 -10z"/>
<path d="M2600 6879 c0 -5 5 -7 10 -4 6 3 10 8 10 11 0 2 -4 4 -10 4 -5 0 -10
-5 -10 -11z"/>
<path d="M2590 6851 c0 -5 6 -11 13 -14 8 -3 14 1 14 9 0 8 -6 14 -14 14 -7 0
-13 -4 -13 -9z"/>
<path d="M2745 6840 c-3 -5 -2 -10 4 -10 5 0 13 5 16 10 3 6 2 10 -4 10 -5 0
-13 -4 -16 -10z"/>
<path d="M2950 6550 c-30 -26 -22 -32 13 -10 16 10 24 20 19 24 -5 3 -20 -3
-32 -14z"/>
<path d="M2104 6490 c0 -13 4 -16 10 -10 7 7 7 13 0 20 -6 6 -10 3 -10 -10z"/>
<path d="M5685 5230 c-3 -5 -1 -10 4 -10 6 0 11 5 11 10 0 6 -2 10 -4 10 -3 0
-8 -4 -11 -10z"/>
<path d="M7450 5079 c0 -5 5 -7 10 -4 6 3 10 8 10 11 0 2 -4 4 -10 4 -5 0 -10
-5 -10 -11z"/>
<path d="M3920 4779 c0 -5 5 -7 10 -4 6 3 10 8 10 11 0 2 -4 4 -10 4 -5 0 -10
-5 -10 -11z"/>
<path d="M3930 4230 c0 -5 5 -10 11 -10 5 0 7 5 4 10 -3 6 -8 10 -11 10 -2 0
-4 -4 -4 -10z"/>
<path d="M4310 4360 c0 -13 12 -19 26 -13 21 8 17 19 -6 19 -11 0 -20 -3 -20
-6z"/>
<path d="M4335 4030 c-3 -6 1 -7 9 -4 18 7 21 14 7 14 -6 0 -13 -4 -16 -10z"/>
<path d="M2035 3450 c-3 -5 -2 -10 4 -10 5 0 13 5 16 10 3 6 2 10 -4 10 -5 0
-13 -4 -16 -10z"/>
<path d="M4784 3105 c-12 -9 -14 -14 -6 -15 7 0 10 -4 7 -10 -3 -5 -2 -10 3
-10 5 0 12 11 14 25 6 29 7 29 -18 10z"/>
<path d="M4796 2956 c3 -9 2 -16 -4 -16 -6 0 -13 6 -15 13 -3 7 -6 5 -6 -5 -1
-13 6 -17 24 -16 29 3 31 10 10 28 -13 11 -14 10 -9 -4z"/>
<path d="M3470 3121 c0 -5 5 -13 10 -16 6 -3 10 -2 10 4 0 5 -4 13 -10 16 -5
3 -10 2 -10 -4z"/>
<path d="M2108 7268 c-20 -31 -38 -85 -31 -92 12 -12 22 -6 17 9 -4 8 -1 15 6
15 7 0 10 7 6 16 -4 9 -2 22 2 28 10 13 23 46 18 46 -2 0 -10 -10 -18 -22z"/>
<path d="M3122 7260 c-8 -13 -8 -20 -2 -20 6 0 13 7 17 15 9 24 -1 27 -15 5z"/>
<path d="M2070 7151 c0 -17 18 -21 24 -6 3 9 0 15 -9 15 -8 0 -15 -4 -15 -9z"/>
<path d="M235 7100 c3 -5 8 -10 11 -10 2 0 4 5 4 10 0 6 -5 10 -11 10 -5 0 -7
-4 -4 -10z"/>
<path d="M626 7065 c-3 -8 -1 -15 4 -15 6 0 10 7 10 15 0 8 -2 15 -4 15 -2 0
-6 -7 -10 -15z"/>
<path d="M2525 6901 c4 -7 2 -16 -5 -21 -9 -5 -9 -9 -1 -14 16 -10 26 23 11
37 -10 9 -11 9 -5 -2z"/>
<path d="M2431 6806 l-21 -23 34 -10 c34 -10 34 -10 26 12 -5 13 -6 25 -4 28
3 3 1 8 -4 11 -5 3 -19 -5 -31 -18z m23 -11 c3 -8 1 -15 -4 -15 -6 0 -10 7
-10 15 0 8 2 15 4 15 2 0 6 -7 10 -15z"/>
<path d="M896 6791 c-3 -4 6 -6 19 -3 14 2 25 6 25 8 0 8 -39 4 -44 -5z"/>
<path d="M1767 6734 c-4 -4 -7 -14 -7 -23 0 -11 3 -12 11 -4 6 6 10 16 7 23
-2 6 -7 8 -11 4z"/>
<path d="M1745 6680 c-3 -5 -1 -10 4 -10 6 0 11 5 11 10 0 6 -2 10 -4 10 -3 0
-8 -4 -11 -10z"/>
<path d="M1725 6590 c-3 -5 -2 -10 4 -10 5 0 13 5 16 10 3 6 2 10 -4 10 -5 0
-13 -4 -16 -10z"/>
<path d="M1660 6586 c0 -2 7 -6 15 -10 8 -3 15 -1 15 4 0 6 -7 10 -15 10 -8 0
-15 -2 -15 -4z"/>
<path d="M1687 6552 c-21 -23 -22 -39 -2 -22 11 9 15 9 15 1 0 -7 5 -9 12 -5
9 6 9 9 1 11 -7 3 -9 11 -6 19 7 19 -1 18 -20 -4z"/>
<path d="M1740 6555 c0 -8 4 -15 10 -15 5 0 7 7 4 15 -4 8 -8 15 -10 15 -2 0
-4 -7 -4 -15z"/>
<path d="M6445 5550 c-3 -5 -1 -10 4 -10 6 0 11 5 11 10 0 6 -2 10 -4 10 -3 0
-8 -4 -11 -10z"/>
<path d="M4695 5460 c-3 -5 0 -10 7 -10 8 0 5 -5 -5 -11 -10 -6 -27 -9 -38 -6
-10 3 -19 2 -19 -3 0 -4 12 -11 26 -14 28 -7 56 17 47 41 -6 16 -10 16 -18 3z"/>
<path d="M4470 5399 c0 -5 5 -7 10 -4 6 3 10 8 10 11 0 2 -4 4 -10 4 -5 0 -10
-5 -10 -11z"/>
<path d="M6900 5401 c0 -6 5 -13 10 -16 6 -3 10 1 10 9 0 9 -4 16 -10 16 -5 0
-10 -4 -10 -9z"/>
<path d="M6760 5360 c0 -5 5 -10 11 -10 5 0 7 5 4 10 -3 6 -8 10 -11 10 -2 0
-4 -4 -4 -10z"/>
<path d="M7190 5351 c0 -5 5 -13 10 -16 6 -3 10 -2 10 4 0 5 -4 13 -10 16 -5
3 -10 2 -10 -4z"/>
<path d="M6448 5173 c6 -2 18 -2 25 0 6 3 1 5 -13 5 -14 0 -19 -2 -12 -5z"/>
<path d="M8320 5140 c0 -5 7 -7 15 -4 8 4 15 8 15 10 0 2 -7 4 -15 4 -8 0 -15
-4 -15 -10z"/>
<path d="M8368 5143 c7 -3 16 -2 19 1 4 3 -2 6 -13 5 -11 0 -14 -3 -6 -6z"/>
<path d="M6884 5089 c-3 -6 -2 -15 3 -20 5 -5 9 -1 9 11 0 23 -2 24 -12 9z"/>
<path d="M7016 5051 c-4 -5 4 -15 16 -22 22 -12 22 -11 8 7 -8 10 -15 20 -16
22 -1 2 -5 -1 -8 -7z"/>
<path d="M6990 5041 c0 -7 -5 -9 -12 -5 -7 5 -8 3 -3 -5 5 -9 10 -10 18 -2 6
6 8 14 4 18 -4 3 -7 1 -7 -6z"/>
<path d="M7230 5039 c0 -5 5 -7 10 -4 6 3 10 8 10 11 0 2 -4 4 -10 4 -5 0 -10
-5 -10 -11z"/>
<path d="M6819 5031 c8 -5 10 -14 6 -22 -6 -11 -5 -11 5 -2 14 12 6 33 -13 33
-8 0 -7 -3 2 -9z"/>
<path d="M6856 5012 c-3 -5 1 -9 9 -9 8 0 15 4 15 9 0 4 -4 8 -9 8 -6 0 -12
-4 -15 -8z"/>
<path d="M7038 4999 c-10 -6 -18 -19 -18 -31 0 -17 2 -18 15 -8 12 10 19 10
27 2 16 -16 51 -16 43 1 -3 6 0 5 6 -5 12 -15 14 -14 31 7 20 26 25 46 6 27
-9 -9 -14 -7 -23 5 -10 13 -14 13 -20 3 -5 -9 -4 -11 3 -6 7 4 12 2 12 -3 0
-15 -13 -14 -28 1 -10 10 -15 10 -21 -1 -7 -11 -10 -11 -12 2 -3 12 -8 13 -21
6z"/>
<path d="M7325 5000 c-4 -6 3 -10 14 -10 25 0 27 6 6 13 -8 4 -17 2 -20 -3z"/>
<path d="M6963 4993 c-25 -9 -13 -30 17 -30 22 0 30 5 30 19 0 18 -20 22 -47
11z"/>
<path d="M7785 4990 c3 -5 8 -10 11 -10 2 0 4 5 4 10 0 6 -5 10 -11 10 -5 0
-7 -4 -4 -10z"/>
<path d="M8535 4960 c3 -5 8 -10 11 -10 2 0 4 5 4 10 0 6 -5 10 -11 10 -5 0
-7 -4 -4 -10z"/>
<path d="M7045 4950 c-3 -5 -1 -10 4 -10 6 0 11 5 11 10 0 6 -2 10 -4 10 -3 0
-8 -4 -11 -10z"/>
<path d="M7696 4949 c7 -11 39 -16 59 -9 15 5 9 8 -22 11 -23 3 -40 1 -37 -2z"/>
<path d="M7848 4933 c7 -3 16 -2 19 1 4 3 -2 6 -13 5 -11 0 -14 -3 -6 -6z"/>
<path d="M6150 4870 c-9 -6 -10 -10 -3 -10 6 0 15 5 18 10 8 12 4 12 -15 0z"/>
<path d="M4968 4843 c6 -2 18 -2 25 0 6 3 1 5 -13 5 -14 0 -19 -2 -12 -5z"/>
<path d="M4771 4794 c-1 -7 -10 -14 -21 -17 -19 -5 -29 -27 -12 -27 17 1 44
30 39 42 -3 8 -6 8 -6 2z"/>
<path d="M4570 4730 c0 -5 5 -10 11 -10 5 0 7 5 4 10 -3 6 -8 10 -11 10 -2 0
-4 -4 -4 -10z"/>
<path d="M4535 4591 c-3 -5 -1 -12 5 -16 5 -3 10 1 10 9 0 18 -6 21 -15 7z"/>
<path d="M4607 4283 c-10 -9 -9 -23 2 -23 5 0 11 7 15 15 5 15 -5 20 -17 8z"/>
<path d="M4780 3539 c0 -5 5 -7 10 -4 6 3 10 8 10 11 0 2 -4 4 -10 4 -5 0 -10
-5 -10 -11z"/>
<path d="M4280 3510 c0 -5 5 -10 11 -10 5 0 7 5 4 10 -3 6 -8 10 -11 10 -2 0
-4 -4 -4 -10z"/>
<path d="M3206 3481 c-3 -5 1 -14 8 -20 12 -10 13 -8 9 8 -6 23 -9 25 -17 12z"/>
<path d="M3180 3436 c7 -7 13 -7 20 0 6 6 3 10 -10 10 -13 0 -16 -4 -10 -10z"/>
<path d="M3240 3415 c0 -9 5 -15 11 -13 6 2 11 8 11 13 0 5 -5 11 -11 13 -6 2
-11 -4 -11 -13z"/>
<path d="M3250 3390 c-13 -8 -13 -10 2 -10 9 0 20 5 23 10 8 13 -5 13 -25 0z"/>
<path d="M1920 3299 c0 -5 5 -7 10 -4 6 3 10 8 10 11 0 2 -4 4 -10 4 -5 0 -10
-5 -10 -11z"/>
<path d="M3158 3253 c6 -2 10 -8 8 -12 -3 -4 4 -7 15 -7 19 0 19 1 3 13 -10 7
-23 13 -28 12 -6 0 -5 -3 2 -6z"/>
<path d="M3776 3248 c4 -6 0 -14 -7 -19 -7 -4 -11 -10 -8 -13 6 -7 49 22 49
32 0 4 -9 8 -20 9 -12 1 -18 -3 -14 -9z"/>
<path d="M2593 3145 c0 -7 6 -11 14 -8 7 3 13 6 13 8 0 2 -6 5 -13 8 -8 3 -14
-1 -14 -8z"/>
<path d="M3330 3109 c0 -5 5 -7 10 -4 6 3 10 8 10 11 0 2 -4 4 -10 4 -5 0 -10
-5 -10 -11z"/>
<path d="M3370 3106 c0 -9 5 -16 10 -16 6 0 10 4 10 9 0 6 -4 13 -10 16 -5 3
-10 -1 -10 -9z"/>
<path d="M2549 3066 c-1 -3 -2 -9 -3 -13 -1 -5 -5 -14 -9 -20 -8 -13 39 -70
49 -60 3 3 -4 13 -15 24 -14 13 -18 26 -14 42 5 21 7 20 24 -15 10 -22 18 -33
19 -26 0 7 -5 21 -12 32 -14 22 -2 41 13 20 9 -13 10 -13 6 0 -3 14 -56 28
-58 16z"/>
<path d="M3943 3045 c-3 -9 -3 -18 -1 -21 3 -3 8 4 11 16 6 23 -1 27 -10 5z"/>
<path d="M4380 3026 c0 -1 9 -9 20 -19 15 -13 20 -14 20 -3 0 7 -9 16 -20 19
-11 3 -20 4 -20 3z"/>
<path d="M3390 2829 c0 -5 5 -7 10 -4 6 3 10 8 10 11 0 2 -4 4 -10 4 -5 0 -10
-5 -10 -11z"/>
<path d="M4877 2724 c4 -11 2 -15 -4 -11 -6 4 -14 0 -17 -9 -3 -8 -2 -12 4 -9
6 3 10 -4 10 -16 0 -12 3 -19 7 -16 11 11 13 66 3 72 -6 4 -7 -1 -3 -11z"/>
<path d="M2780 2716 c0 -2 7 -7 16 -10 8 -3 12 -2 9 4 -6 10 -25 14 -25 6z"/>
<path d="M4681 2693 c13 -40 39 -64 36 -34 0 11 -5 17 -9 15 -4 -3 -8 -1 -8 3
0 5 -7 18 -15 29 -13 17 -14 16 -4 -13z"/>
<path d="M3095 2610 c3 -5 8 -10 11 -10 2 0 4 5 4 10 0 6 -5 10 -11 10 -5 0
-7 -4 -4 -10z"/>
<path d="M3083 2590 c2 -8 -3 -20 -11 -26 -8 -6 -11 -14 -6 -17 16 -9 34 27
22 44 -8 12 -9 12 -5 -1z"/>
<path d="M4435 2580 c-4 -6 -11 -8 -16 -4 -17 10 -5 -21 14 -34 9 -7 17 -20
17 -29 0 -14 -4 -13 -20 5 -24 26 -32 28 -24 7 4 -8 10 -15 16 -15 5 0 7 -3 4
-8 -2 -4 2 -15 9 -25 12 -16 14 -14 20 25 5 28 4 43 -4 46 -6 2 -11 8 -11 13
0 6 4 7 10 4 6 -3 7 1 4 9 -7 19 -11 20 -19 6z"/>
<path d="M2936 2498 c-16 -19 -17 -20 -1 -15 9 4 21 7 26 7 6 0 7 5 3 12 -4 7
-3 8 4 4 6 -4 9 -13 5 -21 -3 -8 0 -15 6 -15 6 0 11 11 11 25 0 32 -28 34 -54
3z"/>
<path d="M4382 2508 c2 -6 10 -13 16 -14 7 -1 8 0 2 3 -5 2 -8 9 -4 14 3 5 0
9 -6 9 -7 0 -10 -5 -8 -12z"/>
<path d="M4410 2460 c0 -19 3 -21 12 -12 9 9 9 15 0 24 -9 9 -12 7 -12 -12z"/>
<path d="M2975 2449 c-11 -16 -1 -19 13 -3 7 8 8 14 3 14 -5 0 -13 -5 -16 -11z"/>
<path d="M4411 2304 c0 -11 3 -14 6 -6 3 7 2 16 -1 19 -3 4 -6 -2 -5 -13z"/>
</g>
</svg>
